<svg width="45" height="112" viewBox="0 0 45 112" fill="none" xmlns="http://www.w3.org/2000/svg">
<path fill-rule="evenodd" clip-rule="evenodd" d="M0.0580204 6.37417C-0.478678 2.54456 2.8304 -0.000244107 4.93769 -7.57051e-06C9.39444 0.0500032 9.34161 3.207 8.46322 3.96392C9.48574 3.50951 10.7562 3.5685 12.0712 4.12785C13.5208 4.7458 14.8994 5.9241 15.9312 7.38731C17.6117 9.77502 19.2932 12.164 20.9593 14.5605C21.0595 14.6783 21.1596 14.7974 21.2577 14.9164C21.9888 15.8032 22.8296 16.5322 23.6706 17.2617C23.8636 17.4291 24.0576 17.5973 24.2494 17.7668C25.7089 19.0565 27.3263 22.2368 28.2158 23.9859C28.2323 24.0177 28.2489 24.0501 28.2653 24.0819C28.4764 24.4966 28.6943 24.8787 28.9506 25.3254C29.5622 26.3913 30.3891 27.832 31.8388 30.9966C32.3677 31.8554 32.8921 32.7183 33.4089 33.584C36.1999 38.259 38.8845 42.9959 41.5052 47.7694C42.1604 48.9628 42.8113 50.1591 43.4592 51.3567C43.6439 51.6954 43.6848 51.7884 44.0125 52.3743C44.9484 54.087 45.1836 55.8349 44.8673 57.5935C43.5189 62.0227 43.4265 60.5778 43.0003 61.5087C41.4773 63.7711 39.9429 66.0271 38.404 68.2802C38.3354 68.3993 38.2647 68.5211 38.1941 68.6435C36.8305 71.0098 35.1396 73.944 33.8498 75.6542C32.2102 77.828 31.037 79.2707 30.0648 80.4496C25.1701 87.6055 20.3176 94.7885 15.6808 102.096C14.2276 104.386 12.7962 106.69 11.3904 109.008C11.5787 108.989 8.97202 112.205 6.69971 111.99C4.43767 112.052 2.3582 110.907 1.35516 108.692C0.221305 102.613 1.73833 104.185 1.83054 102.471C2.10065 101.042 2.32748 99.6757 2.53834 98.4084C2.83469 96.6273 3.0998 95.0409 3.40361 93.7547C4.13558 90.6563 5.3306 87.2417 6.21834 84.7059C6.36341 84.2916 6.50094 83.9 6.62623 83.5377C7.12778 81.468 7.62413 79.3963 8.11832 77.3245C8.20458 77.2009 8.29328 77.0755 8.38375 76.9494C9.51295 75.3755 10.1135 73.2239 11.059 69.8383C11.4708 68.3638 11.9483 66.6548 12.5631 64.6574C12.9592 63.3706 13.3991 62.7743 13.7583 62.287C13.8639 62.1438 13.9636 62.0083 14.0522 61.8691C14.3552 61.3918 14.3413 60.7962 14.3251 60.0939C14.3042 59.1824 14.2794 58.0891 14.937 56.8344C15.5081 55.1765 15.7165 57.441 15.4753 55.9527C15.3156 55.141 15.1195 54.466 14.907 53.891C14.4818 52.7412 13.986 51.9909 13.5588 51.3449C13.3083 50.9661 13.0816 50.622 12.9065 50.255C12.3387 49.0639 12.0594 47.2233 11.9828 45.7963C11.922 44.6648 11.092 42.5917 10.3422 41.0526C10.0589 40.4708 9.82626 39.6432 9.55193 38.6689C9.26788 37.6602 8.93946 36.4919 8.46472 35.2765C7.26507 32.2056 6.64183 30.5693 6.14186 29.2539C5.99933 28.8789 5.86726 28.5289 5.73397 28.1802C5.31277 27.0782 4.8339 25.6986 4.34985 24.3019C3.77054 22.6303 3.18228 20.933 2.67331 19.6586C1.87664 16.2143 1.116 12.7593 0.354939 9.30576C0.138197 8.32513 0.175152 7.91486 0.0580204 6.37417ZM33.3279 54.5379C33.6174 53.7734 32.7039 54.9681 32.4402 55.6913C32.2723 56.0885 32.1414 56.4781 32.0548 56.8876C32.4788 56.1041 32.9017 55.3199 33.3279 54.5379ZM13.7958 89.9946C14.4667 88.6048 15.1291 87.2322 15.7557 86.3763C15.9906 86.0557 16.2999 85.8422 16.606 85.6319L16.6105 85.6305C16.6309 85.6164 16.6516 85.6017 16.672 85.5876C17.9043 83.3302 19.1269 81.0655 20.343 78.7985C20.4245 78.588 20.5077 78.375 20.5904 78.1649C20.9944 77.1379 21.3876 76.1394 21.5232 75.4179C21.6704 74.6357 22.5054 72.9438 23.3856 71.1616C23.9621 69.9944 24.5587 68.7879 24.9932 67.7721C25.2473 67.1783 25.6995 66.7384 26.1644 66.2864C26.5979 65.8649 27.0428 65.4315 27.3491 64.8524C27.5024 64.5621 27.6303 64.2246 27.766 63.8658C27.8854 63.5501 28.0114 63.2159 28.1678 62.8807C28.3135 62.5691 28.7841 61.9612 29.3855 61.1809C29.7572 60.6986 30.1783 60.1493 30.6062 59.5652C30.8023 59.2005 31.0005 58.8368 31.197 58.4723C31.1689 58.4217 31.1484 58.3706 31.1385 58.3202C31.1192 58.2207 31.137 58.1247 31.1535 58.0381C31.1724 57.939 31.19 57.8502 31.146 57.7796C31.1141 57.7288 31.0401 57.6986 30.9511 57.6615C30.8086 57.6021 30.6234 57.5238 30.4952 57.3174C30.018 56.5486 29.5244 55.6459 29.0406 54.7624C28.5025 53.7798 27.9753 52.819 27.4975 52.0878C26.9623 51.2685 26.4016 49.9839 25.839 48.6983C25.4465 47.8015 25.0514 46.9039 24.6663 46.1611C24.2888 45.4331 23.7671 44.7491 23.2612 44.0876C22.6539 43.2934 22.0702 42.5291 21.7886 41.7556C21.7319 41.599 21.7919 41.3281 21.8681 40.9891C21.9221 40.7488 21.9834 40.4728 22.0165 40.1798C21.4878 39.2941 20.9656 38.404 20.4495 37.511C20.4085 37.4929 20.3659 37.4736 20.3235 37.4549L20.3205 37.4535C20.0163 37.3197 19.6791 37.1658 19.3443 36.972C19.5152 37.6204 19.6899 38.268 19.8586 38.917C19.9393 39.2273 20.0199 39.5385 20.1 39.8489C21.1026 42.2888 22.076 44.732 22.6673 46.4786C23.1555 47.9207 23.2935 49.0322 23.4111 49.9832C23.492 50.6375 23.5634 51.2167 23.7336 51.7761C23.8249 52.0766 23.958 52.4849 24.1189 52.9768C24.5359 52.8769 24.6375 59.5154 24.1219 59.93C23.7079 61.4436 23.2065 63.0838 22.6149 64.6175C22.0897 65.9787 21.3737 67.5321 20.6909 69.0142C19.7146 71.1333 18.8047 73.1098 18.6095 74.1803C18.267 76.0596 17.5238 78.1192 16.8669 79.9386C16.2403 81.6743 15.6911 83.1937 15.6448 84.13C15.5894 85.2482 15.2372 86.1183 14.7135 87.4116C14.3948 88.1987 14.0153 89.1439 13.5978 90.3963C13.6627 90.2623 13.731 90.1287 13.7958 89.9946ZM8.15281 4.11899C7.18379 4.48364 5.71095 5.38845 6.53025 6.20876C6.84842 5.27917 7.40174 4.55378 8.15281 4.11899ZM5.59151 104.464C3.85247 105.719 5.25911 104.953 5.65899 104.509C5.72253 104.454 5.78359 104.398 5.84494 104.344C5.76078 104.376 5.67532 104.416 5.59151 104.464Z" fill="#7DA9C3"/>
</svg>
