<svg width="45" height="112" viewBox="0 0 45 112" fill="none" xmlns="http://www.w3.org/2000/svg">
<path fill-rule="evenodd" clip-rule="evenodd" d="M44.942 105.626C45.4787 109.455 42.1696 112 40.0623 112C35.6056 111.95 35.6584 108.793 36.5368 108.036C35.5143 108.49 34.2437 108.432 32.9288 107.872C31.4791 107.254 30.1006 106.076 29.0688 104.613C27.3883 102.225 25.7068 99.836 24.0407 97.4395C23.9405 97.3217 23.8404 97.2026 23.7423 97.0836C23.0112 96.1968 22.1704 95.4678 21.3294 94.7383C21.1364 94.5709 20.9424 94.4027 20.7506 94.2332C19.2911 92.9435 17.6737 89.7632 16.7842 88.0141C16.7677 87.9823 16.7511 87.9499 16.7347 87.9181C16.5236 87.5034 16.3057 87.1213 16.0494 86.6746C15.4378 85.6087 14.6109 84.168 13.1612 81.0034C12.6323 80.1446 12.1079 79.2817 11.5911 78.416C8.80012 73.741 6.11546 69.0041 3.4948 64.2306C2.83963 63.0372 2.1887 61.8409 1.54083 60.6433C1.35605 60.3046 1.31518 60.2116 0.987481 59.6257C0.0515874 57.913 -0.183554 56.1651 0.132715 54.4065C1.48113 49.9773 1.57354 51.4222 1.99971 50.4913C3.52274 48.2289 5.05712 45.9729 6.59595 43.7198C6.66465 43.6007 6.73535 43.4789 6.80589 43.3565C8.16954 40.9902 9.86044 38.056 11.1502 36.3458C12.7898 34.172 13.963 32.7293 14.9352 31.5504C19.8299 24.3945 24.6824 17.2115 29.3192 9.90389C30.7724 7.61378 32.2038 5.31008 33.6096 2.99214C33.4213 3.01113 36.028 -0.204831 38.3003 0.010335C40.5623 -0.0524073 42.6418 1.0935 43.6448 3.30819C44.7787 9.38702 43.2617 7.81547 43.1695 9.52877C42.8994 10.9577 42.6725 12.3243 42.4617 13.5916C42.1653 15.3727 41.9002 16.9591 41.5964 18.2453C40.8644 21.3437 39.6694 24.7583 38.7817 27.2941C38.6366 27.7084 38.4991 28.1 38.3738 28.4623C37.8722 30.532 37.3759 32.6037 36.8817 34.6755C36.7954 34.7991 36.7067 34.9245 36.6163 35.0506C35.4871 36.6245 34.8865 38.7761 33.941 42.1617C33.5292 43.6362 33.0517 45.3452 32.4369 47.3426C32.0408 48.6294 31.6009 49.2257 31.2417 49.713C31.1361 49.8562 31.0364 49.9917 30.9478 50.1309C30.6448 50.6082 30.6587 51.2038 30.6749 51.9061C30.6958 52.8176 30.7206 53.9109 30.063 55.1656C29.4919 56.8235 29.2835 54.559 29.5247 56.0473C29.6844 56.859 29.8805 57.534 30.093 58.109C30.5182 59.2588 31.014 60.0091 31.4412 60.6551C31.6917 61.0339 31.9184 61.378 32.0935 61.745C32.6613 62.9361 32.9406 64.7767 33.0172 66.2037C33.078 67.3352 33.908 69.4083 34.6578 70.9474C34.9411 71.5292 35.1737 72.3568 35.4481 73.3311C35.7321 74.3398 36.0605 75.5081 36.5353 76.7235C37.7349 79.7944 38.3582 81.4307 38.8581 82.7461C39.0007 83.1211 39.1327 83.4711 39.266 83.8198C39.6872 84.9218 40.1661 86.3014 40.6501 87.6981C41.2295 89.3697 41.8177 91.067 42.3267 92.3414C43.1234 95.7857 43.884 99.2407 44.6451 102.694C44.8618 103.675 44.8248 104.085 44.942 105.626ZM11.6721 57.4621C11.3826 58.2266 12.2961 57.0319 12.5598 56.3087C12.7277 55.9115 12.8586 55.5219 12.9452 55.1124C12.5212 55.8959 12.0983 56.6801 11.6721 57.4621ZM31.2042 22.0054C30.5333 23.3952 29.8709 24.7678 29.2443 25.6237C29.0094 25.9443 28.7001 26.1578 28.394 26.3681L28.3895 26.3695C28.3691 26.3836 28.3484 26.3983 28.328 26.4124C27.0957 28.6698 25.8731 30.9345 24.657 33.2015C24.5755 33.412 24.4922 33.6249 24.4096 33.8351C24.0056 34.8621 23.6124 35.8606 23.4768 36.5821C23.3296 37.3643 22.4946 39.0562 21.6143 40.8384C21.0379 42.0056 20.4413 43.2121 20.0068 44.2279C19.7527 44.8217 19.3005 45.2616 18.8356 45.7136C18.4021 46.1351 17.9572 46.5685 17.6509 47.1476C17.4976 47.4379 17.3697 47.7754 17.234 48.1342C17.1146 48.4499 16.9886 48.7841 16.8322 49.1193C16.6865 49.4309 16.2159 50.0388 15.6145 50.8191C15.2428 51.3014 14.8217 51.8507 14.3938 52.4348C14.1977 52.7995 13.9995 53.1632 13.803 53.5277C13.8311 53.5783 13.8516 53.6294 13.8615 53.6798C13.8808 53.7793 13.8629 53.8753 13.8465 53.9619C13.8276 54.061 13.81 54.1498 13.854 54.2204C13.8859 54.2712 13.9599 54.3014 14.0489 54.3385C14.1913 54.3979 14.3766 54.4762 14.5048 54.6826C14.982 55.4514 15.4756 56.3541 15.9594 57.2376C16.4975 58.2202 17.0247 59.181 17.5025 59.9122C18.0377 60.7315 18.5984 62.0161 19.161 63.3017C19.5535 64.1985 19.9486 65.0961 20.3337 65.8389C20.7112 66.5669 21.2329 67.2509 21.7388 67.9124C22.346 68.7066 22.9298 69.4709 23.2114 70.2444C23.2681 70.401 23.2081 70.6719 23.1319 71.0109C23.0779 71.2512 23.0166 71.5272 22.9835 71.8202C23.5122 72.7059 24.0344 73.596 24.5505 74.489C24.5915 74.5071 24.634 74.5264 24.6765 74.5451L24.6795 74.5465C24.9836 74.6803 25.3209 74.8342 25.6557 75.028C25.4848 74.3796 25.3101 73.732 25.1414 73.083C25.0607 72.7727 24.9801 72.4615 24.9 72.1511C23.8974 69.7112 22.924 67.268 22.3327 65.5214C21.8445 64.0793 21.7065 62.9678 21.5889 62.0168C21.508 61.3625 21.4366 60.7833 21.2664 60.2239C21.1751 59.9234 21.042 59.5151 20.881 59.0232C20.4641 59.1231 20.3625 52.4846 20.878 52.07C21.2921 50.5564 21.7935 48.9162 22.3851 47.3825C22.9103 46.0213 23.6263 44.4679 24.3091 42.9858C25.2854 40.8667 26.1952 38.8902 26.3905 37.8197C26.733 35.9404 27.4762 33.8808 28.1331 32.0614C28.7597 30.3257 29.3089 28.8063 29.3552 27.87C29.4106 26.7518 29.7628 25.8817 30.2865 24.5884C30.6052 23.8013 30.9847 22.8561 31.4022 21.6037C31.3373 21.7377 31.269 21.8713 31.2042 22.0054ZM36.8472 107.881C37.8162 107.516 39.289 106.612 38.4697 105.791C38.1516 106.721 37.5983 107.446 36.8472 107.881ZM39.4085 7.53647C41.1475 6.28072 39.7409 7.04739 39.341 7.49069C39.2775 7.54579 39.2164 7.6024 39.1551 7.6561C39.2392 7.62354 39.3247 7.58422 39.4085 7.53647Z" fill="#7DA9C3"/>
</svg>
