<svg width="352" height="348" viewBox="0 0 352 348" fill="none" xmlns="http://www.w3.org/2000/svg">
<path d="M302.393 103.033C320.234 113.333 312.211 133.278 305.09 143.356C304.54 144.134 304.868 145.235 305.747 145.601C316.308 150.008 331.496 162.621 319.402 183.569C303.395 211.293 254.953 192.165 243.66 188.055C232.366 183.946 168.937 196.345 127.516 211.003C90.4319 220.932 96.5467 264.643 47.0846 241.711C27.195 232.49 33.774 209.515 39.6412 198.909C40.0255 198.214 39.7862 197.34 39.1063 196.929C31.2614 192.192 19.5495 180.8 27.1998 167.55C45.642 135.607 77.4959 154.228 88.6341 157.214C99.7723 160.199 183.892 153.733 218.855 133.555C253.817 113.376 278.88 89.4579 302.393 103.033Z" fill="white"/>
<path d="M127.928 171.159C124.356 171.16 121.785 173.554 117.41 173.727C116.764 173.753 116.204 173.752 115.702 173.733C112.705 173.61 111.581 172.958 107.297 173.466C102.183 174.027 97.2787 173.455 94.4761 173.27C94.4439 173.268 94.4123 173.266 94.3819 173.264C94.3819 173.264 94.3821 173.264 94.3817 173.264C91.9516 172.962 92.1628 171.589 89.1583 170.669C88.8737 170.578 88.6147 170.493 88.3522 170.402C86.0348 169.598 84.5343 168.785 82.6615 167.641C82.4917 167.537 82.3178 167.43 82.1387 167.319C81.1417 166.704 79.1997 165.719 77.0246 164.824C75.0293 163.999 72.8356 163.266 71.0747 162.872C70.2396 162.684 69.5022 162.567 68.9369 162.533C67.5931 162.452 66.2416 162.122 64.9526 161.763C63.318 161.304 61.7743 160.804 60.6168 160.617C59.976 160.513 59.4664 160.405 59.0757 160.302C58.7039 160.205 58.7802 159.88 59.1718 159.86C60.2261 159.808 61.7994 159.708 63.7139 159.562C64.3321 159.514 64.853 159.512 65.3146 159.538C67.4091 159.684 68.2646 160.266 71.6125 160.944C71.7972 160.983 71.9892 161.022 72.1894 161.063C74.3522 161.507 76.1387 161.843 77.9388 162.309C79.7979 162.794 81.6717 163.427 83.947 164.568C84.1816 164.686 84.4273 164.813 84.6755 164.945C86.7483 166.048 88.286 166.453 89.8789 166.848C91.5202 167.224 93.3628 167.771 95.5706 168.619C96.0805 168.8 96.7967 168.966 97.6721 169.155C104.929 170.391 105.861 168.059 113.354 167.169C113.893 167.097 114.452 167.03 115.028 166.967C122.267 166.183 130.898 165.99 135.108 165.256C135.183 165.243 135.258 165.23 135.333 165.217C139.845 164.436 145.838 163.219 152.187 162.306C153.238 162.155 154.327 161.967 155.444 161.752C161.173 160.653 167.557 158.844 173.501 157.825C174.108 157.721 174.727 157.614 175.374 157.498C182.291 156.301 190.963 154.324 195.161 153.277C195.226 153.262 195.289 153.246 195.352 153.231C199.777 152.134 200.938 151.81 204.958 149.892C207.325 148.746 210.579 147.41 213.51 146.394C214.936 145.898 214.859 146.391 213.605 147.3C211.662 148.667 210.003 149.248 209.077 150.204C207.392 152.019 206.474 152.817 203.568 153.377C200.57 153.952 199.74 155.576 198.011 156.03C197.426 156.179 197.019 156.186 196.382 156.279C195.192 156.444 193.28 156.94 187.928 158.909C183.075 160.675 179.459 161.792 176.651 162.626C174.684 163.208 173.117 163.64 171.788 164.01C168.598 164.91 161.715 165.759 156.467 167.001C156.455 167.004 156.443 167.007 156.43 167.01C151.253 168.287 140.647 169.891 136.19 170.894C136.122 170.91 136.055 170.926 135.989 170.942C131.664 171.968 131.546 171.138 127.928 171.159ZM112.335 199.724C113.64 199.377 114.76 199.009 115.95 198.585C119.598 196.961 122.948 194.684 128.122 193.447C130.084 192.982 131.622 192.725 132.93 192.55C136.119 192.122 138.291 192.055 143.602 190.568C145.946 189.915 148.328 189.367 150.569 188.895C155.559 187.841 159.946 187.133 162.223 186.316C164.762 185.405 165.737 185.94 168.229 185.621C168.966 185.527 169.837 185.359 170.92 185.059C175.68 183.743 178.642 183.312 182.952 182.881C183.697 182.807 184.708 182.677 185.892 182.507C190.921 181.781 199.079 180.346 203.504 179.196C204.038 179.056 204.515 178.921 204.924 178.792C209.554 177.338 215.098 177.224 218.387 176.815C219.422 176.685 220.23 176.626 220.85 176.606C221.112 176.598 221.246 176.661 221.262 176.746C221.262 176.746 221.262 176.746 221.262 176.747C221.283 176.852 221.122 176.991 220.797 177.068C219.205 177.444 216.834 178.079 214.068 179.013C209.684 180.492 208.498 180.223 203.894 181.193C203.083 181.363 202.152 181.576 201.103 181.838C195.606 183.214 191.878 184.481 186.509 185.555C184.964 185.864 183.298 186.155 181.404 186.434C175.975 187.235 173.403 188.51 169.101 189.692C166.686 190.358 163.717 190.997 159.388 191.541C156.066 191.961 153.601 192.46 151.533 193.019C146.123 194.5 143.4 196.318 135.085 198.719C134.931 198.764 134.777 198.809 134.622 198.854C129.18 200.437 123.19 201.947 117.525 203.702C113.298 204.637 109.988 205.94 107.228 207.5C105.882 208.261 104.718 209.067 103.817 209.792C102.22 211.073 100.559 212.664 98.9266 214.518C96.6557 217.069 94.4443 220.188 91.9517 223.551C90.297 225.755 88.5015 228.072 86.2343 230.21C85.3673 231.024 84.4237 231.836 83.3883 232.596C80.0719 235.132 75.4837 236.787 71.0493 236.979C66.7784 237.233 62.4248 236.496 58.6114 235.455C55.6828 234.623 53.5883 232.624 52.1077 230.773C51.823 230.412 51.5537 230.043 51.2965 229.664C50.2376 228.099 49.3354 226.325 48.6534 224.42C47.8702 222.231 47.3716 219.85 47.3048 217.406C47.2358 215.001 47.6121 212.535 48.496 210.3C49.4089 207.956 50.8699 205.928 52.5289 204.387C54.3873 202.641 56.5764 201.417 58.3588 200.667C58.4664 200.614 58.3905 200.67 58.4512 200.633C58.4811 200.616 58.5115 200.588 58.5376 200.551C58.5646 200.514 58.5859 200.467 58.5985 200.421C58.6117 200.373 58.6157 200.327 58.6148 200.29C58.6136 200.252 58.609 200.224 58.6009 200.198C58.5629 200.152 58.6453 200.191 58.5418 200.115C58.3971 200.029 58.2534 199.944 58.1116 199.86C56.3744 198.827 55.006 197.966 53.8183 197.199C52.1005 196.086 50.7425 195.177 49.1915 194.108C47.9098 193.211 46.4823 192.219 44.7293 190.719C44.6289 190.632 44.5277 190.544 44.426 190.454C43.2525 189.412 41.9943 188.086 40.9648 186.435C39.969 184.845 39.2176 182.887 39.1941 180.893C39.1648 179.439 39.529 178.032 40.1249 176.864C41.4314 174.713 41.3681 175.486 40.7411 177.654C40.4873 178.773 40.4335 179.833 40.5411 180.787C40.7515 182.637 41.5102 184.085 42.3364 184.883C42.4837 185.025 42.6242 185.152 42.7651 185.277C44.3005 186.599 45.4113 187.304 46.7351 188.551C47.4389 189.197 48.222 189.977 49.2549 190.984C49.7026 191.421 50.1487 191.794 50.5834 192.116C52.4034 193.457 53.991 193.937 55.3908 194.497C56.0453 194.756 56.6673 195.032 57.2799 195.415C58.2593 196.024 58.7307 196.481 60.0025 197.29C60.2415 197.411 60.7873 197.822 61.0415 198.181C61.3117 198.525 61.5241 198.941 61.6455 199.388C61.7543 199.787 61.7938 200.209 61.7562 200.639C61.722 201.027 61.6254 201.422 61.4512 201.811C61.2922 202.165 61.0664 202.516 60.7632 202.829C60.5307 203.088 60.0356 203.437 59.7544 203.554C58.3669 204.22 56.7603 205.124 55.0886 206.912C54.522 207.531 53.9763 208.246 53.4957 209.085C53.0103 209.933 52.6476 210.804 52.3916 211.664C51.8269 213.564 51.7606 215.421 51.9375 217.106C52.1594 219.167 52.7329 220.975 53.4083 222.511C54.2886 224.496 55.3499 226.04 56.3712 227.183C57.1232 228.023 57.8675 228.654 58.5393 229.082C59.0489 229.388 59.3313 229.591 60.1067 229.841C63.1414 230.672 66.9124 231.61 70.7945 231.529C73.7861 231.483 76.6735 230.674 78.8927 229.179C79.2976 228.912 79.7203 228.611 80.1584 228.269C82.4264 226.553 84.916 223.585 87.3921 220.171C89.727 216.975 92.2257 213.498 94.7354 210.702C96.7556 208.417 98.7595 206.564 100.244 205.283C101.828 203.911 103.117 203.069 104.188 202.476C106.931 201.039 108.314 200.869 112.335 199.724ZM296.69 148.585C296.563 148.49 296.435 148.401 296.305 148.317C294.365 147.07 292.25 146.92 289.939 146.524C289.661 146.466 289.003 146.148 288.67 145.898C288.277 145.62 287.921 145.275 287.626 144.877C287.336 144.486 287.105 144.046 286.947 143.572C286.791 143.107 286.706 142.606 286.707 142.091C286.707 141.586 286.791 141.066 286.964 140.567C287.086 140.151 287.495 139.449 287.701 139.213C287.998 138.806 288.342 138.384 288.714 137.981C289.925 136.667 290.82 135.914 291.648 135.212C292.854 134.179 293.965 133.316 295.222 131.233C295.391 130.947 295.558 130.64 295.719 130.309C296.324 129.071 296.854 127.865 297.184 126.727C297.669 125.098 297.692 123.631 297.325 122.462C297.04 121.534 296.559 120.827 296.074 120.412C295.36 119.824 295.125 119.33 294.806 118.717C294.448 118.05 294.014 117.257 292.524 116.475C291.883 116.142 291.333 115.871 290.744 115.574C289.05 114.749 287.803 114.132 286.105 113.426C285.866 113.329 285.618 113.231 285.361 113.136C284.468 112.798 282.863 112.408 280.98 112.34C279.29 112.269 277.391 112.468 275.686 112.904C273.685 113.404 271.967 114.202 271.013 114.858C270.933 114.913 270.852 114.968 270.77 115.022C269.279 116.001 267.593 116.794 266.038 117.573C264.84 118.169 263.727 118.747 262.929 119.277C262.331 119.676 261.862 119.955 261.468 120.168C261.303 120.257 261.181 120.249 261.124 120.184C261.124 120.184 261.124 120.184 261.124 120.184C261.052 120.103 261.081 119.935 261.251 119.769C262.062 118.974 263.264 117.739 264.713 116.252C264.798 116.165 264.878 116.084 264.962 116.002C266.81 114.241 267.835 113.952 269.825 113.03C270.636 112.671 271.617 112.219 272.965 111.642C273.722 111.32 274.441 111.038 275.15 110.786C277.091 110.101 278.902 109.632 280.936 109.482C282.704 109.361 284.669 109.487 286.901 110.178C287.138 110.253 287.377 110.333 287.621 110.421C289.614 111.153 291.176 111.744 292.544 112.272C292.544 112.272 292.544 112.272 292.544 112.272C294.169 112.917 295.96 113.569 297.95 115.311C299.131 116.389 300.553 118.004 301.278 120.603C301.321 120.767 301.359 120.92 301.397 121.085C302.024 123.998 301.618 126.098 301.329 127.786C300.868 130.058 300.434 131.803 299.61 133.896C298.989 135.439 298.1 137.144 296.661 139.137C296.589 139.237 296.515 139.338 296.44 139.439C295.402 140.848 294.262 142.21 293.138 143.554C293.158 143.556 293.428 143.113 293.458 142.965C293.535 142.746 293.575 142.513 293.577 142.29C293.58 142.067 293.546 141.852 293.483 141.654C293.42 141.455 293.328 141.271 293.209 141.104C293.091 140.937 292.945 140.788 292.781 140.666C292.689 140.579 292.271 140.37 292.262 140.391C294.551 141.354 296.816 142.553 298.8 143.797C301.146 145.261 303.173 146.831 304.773 148.218C305.444 148.797 306.04 149.341 306.565 149.823C307.726 150.891 308.949 152.162 310.082 153.717C311.517 155.681 312.802 158.155 313.396 160.992C313.951 163.571 313.883 166.383 313.225 169.014C313.188 169.165 313.15 169.31 313.112 169.451C312.521 171.674 311.526 174.11 310.427 176.165C308.808 179.338 306.001 182.932 302.652 185.138C300.537 186.578 298.183 187.594 295.854 188.161C294.491 188.495 293.025 188.741 291.518 188.882C287.781 189.241 283.823 188.918 280.32 188.286C276.454 187.593 273.114 186.568 270.942 185.814C270.538 185.673 270.162 185.539 269.809 185.411C265.828 183.926 264.504 183.42 260.108 182.089C259.954 182.041 259.797 181.991 259.639 181.939C256.951 181.072 253.6 179.538 250.893 177.964C249.424 177.144 249.876 176.888 251.537 177.309C253.965 177.951 255.725 178.855 257.094 178.87C258.598 178.887 259.578 178.887 260.664 179.172C261.519 179.392 262.433 179.796 263.679 180.491C266.493 182.045 268.28 181.256 269.979 181.896C270.25 181.997 270.47 182.098 270.688 182.205C271.848 182.683 272.916 183.795 280.607 184.433C280.661 184.436 280.715 184.439 280.77 184.442C284.996 184.669 288.249 184.359 290.757 183.856C293.594 183.28 295.499 182.489 296.945 181.733C297.622 181.375 298.477 180.934 299.402 180.35C301.695 178.909 304.03 176.791 305.759 173.62C306.238 172.744 306.602 171.94 306.891 171.139C307.222 170.211 307.572 169.122 307.821 167.865C308.182 166.073 308.253 164.069 307.831 162.162C307.421 160.231 306.51 158.413 305.437 156.964C304.489 155.673 303.446 154.668 302.617 154.008C301.994 153.514 301.483 153.115 301.056 152.762C299.157 151.261 299.074 150.429 296.69 148.585ZM52.0321 241.514C55.6066 243.104 58.9436 244.223 62.4255 244.959C67.2738 245.97 72.2618 246.122 76.8249 244.742C81.0229 243.501 84.7588 240.919 88.5279 237.172C90.3495 235.378 92.1978 233.332 94.1963 231.125C95.9565 229.179 97.5694 227.398 99.0977 225.811C103.637 221.086 107.427 217.995 111.723 215.299C115.704 212.844 120.354 210.533 126.831 208.797C129.35 207.923 132.2 206.943 135.476 205.843C138.873 204.703 142.317 203.623 145.715 202.614C152.37 200.639 158.894 198.919 164.969 197.421C172.335 195.604 179 194.126 184.383 192.919C187.458 192.23 190.135 191.623 192.222 191.101C197.448 189.802 200.401 189.486 203.946 189.094C207.454 188.725 211.454 188.249 218.924 187.065C220.578 186.807 222.204 186.576 223.734 186.38C231.302 185.593 237.315 184.627 244.246 186.443C247.988 187.909 251.805 189.442 256.134 190.98C256.403 191.076 256.687 191.176 256.987 191.28C260.148 192.374 264.7 193.814 270.056 195.052C274.152 195.995 278.713 196.815 283.454 197.211C287.917 197.585 292.547 197.569 296.933 196.906C301.625 196.212 306.02 194.713 309.493 192.553C313.779 189.924 316.439 186.547 317.994 183.81C318.143 183.549 318.29 183.283 318.435 183.011C319.632 180.77 320.662 178.476 321.419 176.084C322.171 173.711 322.635 171.247 322.671 168.798C322.715 166.3 322.296 163.82 321.473 161.551C320.598 159.115 319.28 156.924 317.783 155.049C316.064 152.895 314.127 151.15 312.275 149.774C311.795 149.417 311.311 149.079 310.845 148.771C308.877 147.474 307.128 146.553 305.643 145.852C305.492 145.784 305.326 145.676 305.204 145.564C305.071 145.444 304.961 145.307 304.875 145.162C304.785 145.011 304.721 144.851 304.682 144.69C304.667 144.63 304.656 144.569 304.648 144.509C304.632 144.395 304.631 144.288 304.638 144.189C304.653 143.993 304.704 143.833 304.762 143.712C304.911 143.412 305.064 143.336 305.102 143.365C305.102 143.365 305.102 143.365 305.103 143.365C305.151 143.399 305.093 143.548 305.052 143.805C305.035 143.915 305.024 144.045 305.035 144.193C305.044 144.308 305.066 144.433 305.11 144.564C305.133 144.634 305.162 144.705 305.199 144.776C305.222 144.819 305.247 144.861 305.274 144.902C305.343 145.005 305.428 145.098 305.526 145.177C305.627 145.256 305.718 145.31 305.847 145.363C307.91 146.189 310.309 147.359 312.811 149.009C314.834 150.348 316.933 152.008 318.878 154.112C319.941 155.264 320.955 156.554 321.852 157.988C322.447 158.94 322.939 159.885 323.343 160.812C324.606 163.725 325.017 166.398 325.046 168.794C325.063 171.692 324.554 174.228 323.703 176.814C322.946 179.083 321.859 181.484 320.331 184.106C320.331 184.106 320.331 184.106 320.331 184.106C318.497 187.234 315.589 191.103 310.537 194.277C310.385 194.372 310.23 194.467 310.074 194.561C305.841 197.095 301.469 198.394 297.276 199.144C292.487 199.978 287.867 200.102 283.255 199.857C278.739 199.606 274.222 198.982 269.426 197.986C265.212 197.107 260.802 195.936 256.015 194.385C253.629 193.611 251.216 192.764 248.632 191.793C246.658 191.053 244.759 190.32 243.064 189.69C236.43 188.226 229.972 189.491 224.17 190.209C218.369 191.081 212.47 192.183 204.758 193.606C199.38 194.606 193.09 195.778 185.343 197.271C184.086 197.514 182.821 197.759 181.491 198.019C175.517 199.189 170.453 200.333 166.001 201.439C158.36 203.343 152.523 205.124 147.011 206.979C141.058 208.997 135.454 211.085 128.402 213.86C124.048 215.2 119.839 217.038 115.148 220.321C113.556 221.444 111.949 222.724 110.313 224.19C108.212 226.068 106.17 228.171 104.141 230.407C100.748 234.115 97.4164 238.278 93.3111 242.185C89.3307 246.008 84.1587 249.518 78.2779 250.806C72.3434 252.177 66.3826 251.466 61.1839 250.159C55.6357 248.756 50.4248 246.578 45.8438 244.387C45.8436 244.387 45.8437 244.387 45.8437 244.387C43.2009 243.141 40.4169 241.305 38.3139 239.222C36.0081 236.98 34.2407 234.299 33.1002 231.563C31.8312 228.542 31.2752 225.498 31.0973 222.7C30.8954 219.441 31.1796 216.488 31.6041 213.894C31.6575 213.57 31.7135 213.252 31.7714 212.94C32.2274 210.485 32.891 208 33.758 205.5C34.6701 202.876 35.8248 200.176 37.2406 197.581C37.2406 197.581 37.2406 197.581 37.2407 197.581C37.2404 197.56 37.1247 197.825 37.1187 197.884C37.0907 197.992 37.0769 198.104 37.0774 198.213C37.0779 198.322 37.0924 198.43 37.1198 198.533C37.1471 198.636 37.1874 198.735 37.2401 198.829C37.2927 198.922 37.3579 199.01 37.4334 199.088C37.4658 199.135 37.6939 199.305 37.6822 199.287C35.9299 198.241 34.1615 196.986 32.5241 195.622C30.9283 194.291 29.3935 192.813 27.9791 191.158C26.6043 189.546 25.3372 187.76 24.2979 185.764C23.2855 183.819 22.4952 181.661 22.1144 179.357C21.7359 177.106 21.7767 174.717 22.258 172.443C22.6982 170.253 23.6703 167.912 24.7235 166.12C26.6446 162.776 29.194 159.216 32.187 156.273C35.1001 153.381 38.6427 150.863 42.5789 149.176C45.0368 148.114 47.6454 147.364 50.2864 146.93C51.7783 146.684 53.3009 146.529 54.8303 146.462C58.8882 146.284 63 146.717 67.0455 147.543C70.9434 148.337 74.7876 149.496 78.5745 150.815C82.2358 152.061 85.9567 153.627 89.3383 154.586C95.4271 155.571 103.431 155.062 110.665 154.693C118.043 154.244 125.418 153.564 132.705 152.757C140.033 151.941 147.205 150.998 154.243 149.948C154.384 149.927 154.526 149.905 154.667 149.884C161.513 148.854 168.884 147.571 176.438 145.951C183.522 144.43 190.768 142.616 197.792 140.395C204.951 138.119 211.836 135.478 217.993 132.062C222.714 129.424 227.144 126.787 231.343 124.232C236.162 121.299 240.604 118.523 244.574 116.095C247.297 114.428 249.796 112.924 252.022 111.624C254.159 110.377 256.158 109.243 258.03 108.223C263.495 105.248 267.919 103.175 272.186 101.573C276.966 99.8339 281.596 98.4634 287.565 98.3272C291.2 98.2868 295.366 98.8295 299.9 100.803C300.895 101.238 301.839 101.709 302.833 102.272C304.988 103.493 307.213 105.124 309.067 107.221C310.798 109.162 312.208 111.547 313.033 114.17C313.841 116.7 314.113 119.41 313.959 122.067C313.81 124.712 313.259 127.311 312.469 129.78C311.66 132.302 310.599 134.702 309.398 136.933C308.923 137.814 308.428 138.667 307.915 139.492C303.66 145.606 304.502 144.026 308.007 137.582C308.185 137.224 308.359 136.863 308.529 136.501C309.663 134.087 310.569 131.702 311.219 129.411C311.963 126.792 312.368 124.284 312.427 122.004C312.508 119.143 312.024 116.653 311.246 114.754C311.114 114.43 310.973 114.119 310.828 113.828C309.783 111.746 308.501 110.186 307.169 108.906C305.318 107.159 303.596 106.036 301.366 104.813C297.728 102.949 293.987 101.24 287.58 100.923C287.517 100.921 287.453 100.919 287.389 100.917C281.364 100.808 276.835 102.481 273.143 104.061C268.631 106.076 265.256 108.205 261.305 110.285C260.718 110.597 260.2 110.87 259.689 111.14C256.335 112.93 253.957 114.012 246.276 118.776C243.027 120.791 238.837 123.498 233.165 127.128C229.456 129.494 225.102 132.259 219.897 135.359C219.479 135.608 219.049 135.858 218.606 136.11C211.854 139.903 205.243 142.465 199.181 144.579C191.234 147.31 184.029 149.228 177.547 150.792C169.084 152.815 161.85 154.198 155.56 155.296C149.763 156.302 144.747 157.052 140.312 157.666C138.239 157.953 135.964 158.238 133.362 158.53C127.08 159.231 119.377 159.915 110.987 160.326C103.716 160.534 96.4263 161.207 87.9448 159.786C83.8635 158.576 80.3943 157.047 76.8157 155.828C73.1318 154.534 69.5006 153.464 65.9795 152.784C65.9636 152.781 65.9477 152.778 65.9318 152.775C62.714 152.158 59.0206 151.703 55.1003 151.913C51.723 152.091 48.1837 152.796 44.8193 154.286C41.7018 155.653 38.7455 157.708 36.1721 160.282C33.6776 162.775 31.5637 165.643 29.6467 168.962C28.7082 170.624 28.1902 171.946 27.8254 173.612C27.4907 175.208 27.4605 176.841 27.7271 178.438C27.995 180.062 28.5644 181.653 29.3464 183.157C30.1486 184.701 31.1689 186.152 32.3084 187.489C33.4912 188.875 34.8055 190.143 36.1711 191.282C37.6329 192.495 39.0702 193.513 40.6118 194.436C40.8229 194.551 41.2694 194.891 41.4854 195.125C41.7481 195.393 41.9756 195.694 42.1608 196.017C42.347 196.341 42.4908 196.687 42.589 197.046C42.6878 197.406 42.7406 197.779 42.7452 198.154C42.7499 198.531 42.7056 198.91 42.6134 199.277C42.5446 199.593 42.3257 200.12 42.2009 200.325C40.8817 202.76 39.9029 205.121 39.1257 207.392C38.3147 209.775 37.7771 211.978 37.4448 213.905C37.3898 214.224 37.3392 214.539 37.293 214.848C36.8586 217.767 36.806 220.221 36.95 222.296C37.1618 225.233 37.7419 227.422 38.4476 229.257C39.3731 231.593 40.4856 233.406 42.141 235.222C43.5973 236.755 45.182 238.119 48.0571 239.613C49.3053 240.246 50.6291 240.886 52.0321 241.514Z" fill="#463326"/>
<g style="mix-blend-mode:multiply">
<path d="M304.371 105.263C322.211 115.564 314.189 135.508 307.067 145.586C306.517 146.364 306.845 147.465 307.725 147.832C318.286 152.238 333.473 164.851 321.379 185.8C305.372 213.524 256.93 194.395 245.637 190.286C234.344 186.176 170.914 198.575 129.493 213.233C92.4092 223.163 98.524 266.873 49.0619 243.941C29.1723 234.72 35.7513 211.745 41.6184 201.139C42.0028 200.444 41.7635 199.57 41.0836 199.159C33.2386 194.422 21.5268 183.031 29.1771 169.78C47.6193 137.837 79.4732 156.459 90.6114 159.444C101.75 162.43 185.87 155.963 220.832 135.785C255.794 115.606 280.858 91.6881 304.371 105.263Z" fill="white"/>
<path d="M129.906 173.389C126.333 173.39 123.763 175.785 119.387 175.957C118.742 175.983 118.182 175.982 117.679 175.963C114.683 175.84 113.559 175.188 109.274 175.696C104.161 176.257 99.256 175.685 96.4534 175.5C96.4212 175.498 96.3896 175.496 96.3592 175.494C96.3591 175.494 96.3594 175.494 96.359 175.494C93.9289 175.193 94.1401 173.82 91.1356 172.899C90.851 172.808 90.592 172.723 90.3295 172.632C88.0121 171.828 86.5116 171.015 84.6388 169.871C84.469 169.767 84.2951 169.66 84.116 169.55C83.119 168.934 81.177 167.949 79.0019 167.055C77.0066 166.229 74.8129 165.496 73.052 165.102C72.2169 164.914 71.4795 164.797 70.9141 164.763C69.5704 164.682 68.2189 164.352 66.9299 163.993C65.2953 163.534 63.7516 163.034 62.5941 162.847C61.9533 162.743 61.4437 162.636 61.053 162.532C60.6812 162.435 60.7575 162.11 61.1491 162.09C62.2034 162.038 63.7767 161.938 65.6912 161.792C66.3094 161.744 66.8303 161.742 67.2919 161.768C69.3864 161.914 70.2419 162.496 73.5898 163.174C73.7745 163.213 73.9665 163.253 74.1667 163.293C76.3295 163.737 78.116 164.073 79.9161 164.539C81.7751 165.024 83.649 165.657 85.9243 166.799C86.1589 166.917 86.4046 167.043 86.6528 167.175C88.7256 168.278 90.2633 168.683 91.8562 169.078C93.4975 169.454 95.3401 170.002 97.5479 170.849C98.0578 171.03 98.774 171.196 99.6494 171.385C106.906 172.621 107.838 170.29 115.331 169.399C115.87 169.328 116.429 169.261 117.005 169.197C124.244 168.413 132.875 168.22 137.086 167.486C137.16 167.473 137.235 167.46 137.31 167.447C141.822 166.667 147.815 165.45 154.165 164.536C155.216 164.386 156.304 164.197 157.421 163.983C163.15 162.883 169.535 161.075 175.479 160.055C176.085 159.952 176.704 159.844 177.351 159.729C184.268 158.531 192.941 156.555 197.138 155.507C197.203 155.492 197.267 155.477 197.33 155.461C201.755 154.364 202.915 154.04 206.935 152.122C209.302 150.976 212.556 149.641 215.487 148.624C216.913 148.129 216.836 148.622 215.582 149.53C213.639 150.897 211.981 151.478 211.055 152.434C209.37 154.249 208.451 155.047 205.545 155.607C202.547 156.182 201.717 157.806 199.988 158.26C199.404 158.409 198.996 158.417 198.36 158.509C197.17 158.674 195.257 159.17 189.905 161.139C185.052 162.905 181.436 164.022 178.628 164.856C176.661 165.438 175.095 165.871 173.765 166.24C170.575 167.141 163.692 167.989 158.444 169.231C158.432 169.234 158.42 169.237 158.408 169.24C153.23 170.518 142.624 172.121 138.167 173.124C138.099 173.14 138.032 173.156 137.967 173.172C133.642 174.198 133.523 173.369 129.906 173.389ZM114.313 201.954C115.617 201.607 116.738 201.239 117.927 200.815C121.575 199.191 124.926 196.914 130.1 195.677C132.061 195.212 133.599 194.956 134.907 194.78C138.096 194.353 140.268 194.285 145.579 192.798C147.923 192.145 150.305 191.598 152.546 191.125C157.537 190.071 161.923 189.364 164.2 188.547C166.739 187.635 167.715 188.17 170.206 187.852C170.943 187.758 171.815 187.589 172.897 187.289C177.657 185.974 180.62 185.542 184.929 185.111C185.674 185.037 186.685 184.908 187.87 184.737C192.898 184.011 201.056 182.576 205.481 181.426C206.015 181.286 206.492 181.152 206.901 181.023C211.531 179.568 217.076 179.454 220.364 179.045C221.4 178.915 222.207 178.856 222.827 178.836C223.09 178.828 223.223 178.892 223.24 178.977C223.24 178.977 223.24 178.977 223.24 178.977C223.26 179.082 223.099 179.222 222.774 179.298C221.183 179.674 218.811 180.31 216.045 181.243C211.661 182.722 210.476 182.454 205.871 183.423C205.06 183.594 204.13 183.806 203.08 184.069C197.584 185.444 193.855 186.711 188.487 187.785C186.942 188.094 185.276 188.386 183.381 188.664C177.953 189.465 175.38 190.74 171.079 191.922C168.663 192.588 165.694 193.227 161.366 193.772C158.043 194.191 155.579 194.69 153.511 195.249C148.101 196.73 145.377 198.548 137.063 200.949C136.908 200.994 136.754 201.039 136.599 201.084C131.157 202.667 125.167 204.178 119.503 205.932C115.275 206.867 111.966 208.17 109.205 209.73C107.859 210.491 106.695 211.297 105.795 212.022C104.198 213.303 102.537 214.894 100.904 216.748C98.633 219.3 96.4216 222.419 93.929 225.781C92.2743 227.985 90.4788 230.302 88.2116 232.44C87.3445 233.254 86.401 234.066 85.3656 234.826C82.0492 237.362 77.461 239.018 73.0266 239.209C68.7557 239.463 64.4021 238.726 60.5887 237.686C57.6601 236.854 55.5656 234.854 54.085 233.003C53.8003 232.643 53.531 232.274 53.2738 231.894C52.2149 230.329 51.3127 228.555 50.6307 226.651C49.8475 224.461 49.3489 222.08 49.2821 219.636C49.2131 217.232 49.5894 214.766 50.4733 212.53C51.3862 210.187 52.8472 208.159 54.5062 206.617C56.3646 204.871 58.5537 203.647 60.3361 202.897C60.4437 202.844 60.3678 202.901 60.4285 202.864C60.4584 202.846 60.4888 202.818 60.5149 202.782C60.5419 202.744 60.5632 202.697 60.5758 202.651C60.589 202.603 60.593 202.557 60.5921 202.521C60.5909 202.482 60.5863 202.454 60.5781 202.429C60.5402 202.382 60.6226 202.421 60.5191 202.345C60.3744 202.259 60.2307 202.174 60.0889 202.09C58.3517 201.057 56.9833 200.196 55.7956 199.429C54.0778 198.316 52.7198 197.408 51.1688 196.338C49.8871 195.441 48.4596 194.449 46.7066 192.949C46.6062 192.862 46.505 192.774 46.4033 192.684C45.2298 191.642 43.9716 190.316 42.9421 188.665C41.9463 187.075 41.1949 185.117 41.1714 183.123C41.1421 181.669 41.5063 180.263 42.1022 179.094C43.4087 176.943 43.3454 177.716 42.7184 179.885C42.4646 181.003 42.4108 182.064 42.5184 183.018C42.7288 184.867 43.4875 186.315 44.3137 187.113C44.461 187.256 44.6015 187.382 44.7424 187.507C46.2778 188.829 47.3886 189.534 48.7124 190.781C49.4162 191.427 50.1993 192.207 51.2322 193.215C51.6799 193.651 52.126 194.024 52.5607 194.347C54.3807 195.687 55.9683 196.167 57.3681 196.727C58.0226 196.986 58.6446 197.262 59.2572 197.645C60.2366 198.255 60.708 198.711 61.9797 199.52C62.2188 199.642 62.7646 200.053 63.0188 200.411C63.2889 200.756 63.5014 201.171 63.6228 201.618C63.7316 202.017 63.7711 202.439 63.7335 202.869C63.6992 203.257 63.6027 203.652 63.4285 204.041C63.2695 204.396 63.0437 204.746 62.7405 205.059C62.508 205.319 62.0129 205.667 61.7317 205.784C60.3442 206.451 58.7376 207.354 57.0658 209.143C56.4993 209.761 55.9536 210.476 55.473 211.315C54.9876 212.164 54.6249 213.034 54.3688 213.894C53.8041 215.795 53.7379 217.651 53.9148 219.337C54.1367 221.397 54.7102 223.205 55.3856 224.741C56.2659 226.726 57.3272 228.27 58.3485 229.413C59.1005 230.254 59.8448 230.884 60.5166 231.313C61.0262 231.618 61.3086 231.822 62.084 232.071C65.1187 232.902 68.8897 233.84 72.7718 233.759C75.7634 233.713 78.6508 232.904 80.87 231.409C81.2749 231.142 81.6976 230.841 82.1357 230.499C84.4037 228.783 86.8933 225.815 89.3694 222.402C91.7043 219.205 94.203 215.728 96.7127 212.932C98.7329 210.647 100.737 208.794 102.221 207.513C103.806 206.141 105.094 205.3 106.165 204.707C108.908 203.269 110.292 203.099 114.313 201.954ZM298.667 150.815C298.54 150.72 298.412 150.631 298.283 150.547C296.342 149.3 294.227 149.15 291.916 148.754C291.639 148.696 290.98 148.378 290.648 148.128C290.255 147.851 289.898 147.505 289.603 147.107C289.314 146.716 289.082 146.277 288.924 145.802C288.769 145.337 288.683 144.836 288.684 144.321C288.684 143.816 288.768 143.296 288.941 142.797C289.063 142.381 289.473 141.679 289.678 141.443C289.975 141.036 290.32 140.614 290.691 140.211C291.902 138.897 292.797 138.145 293.626 137.442C294.831 136.409 295.943 135.546 297.2 133.463C297.368 133.177 297.535 132.871 297.696 132.539C298.302 131.301 298.832 130.095 299.161 128.957C299.646 127.328 299.669 125.861 299.302 124.692C299.018 123.764 298.536 123.057 298.051 122.643C297.338 122.054 297.102 121.56 296.784 120.947C296.426 120.28 295.992 119.487 294.501 118.705C293.86 118.372 293.31 118.101 292.721 117.804C291.028 116.979 289.78 116.362 288.082 115.656C287.843 115.559 287.595 115.462 287.339 115.366C286.445 115.028 284.841 114.638 282.957 114.571C281.268 114.499 279.368 114.699 277.663 115.134C275.662 115.634 273.944 116.432 272.991 117.089C272.91 117.144 272.829 117.198 272.747 117.252C271.256 118.231 269.57 119.025 268.015 119.804C266.818 120.399 265.704 120.978 264.906 121.507C264.308 121.906 263.839 122.185 263.445 122.398C263.28 122.487 263.158 122.479 263.101 122.414C263.101 122.414 263.101 122.414 263.101 122.414C263.029 122.333 263.058 122.166 263.228 121.999C264.039 121.204 265.241 119.97 266.69 118.483C266.775 118.396 266.855 118.314 266.94 118.232C268.787 116.472 269.812 116.183 271.803 115.261C272.613 114.901 273.594 114.449 274.942 113.872C275.7 113.551 276.419 113.268 277.128 113.016C279.068 112.331 280.879 111.862 282.914 111.712C284.681 111.591 286.647 111.717 288.878 112.409C289.116 112.483 289.354 112.563 289.598 112.652C291.591 113.383 293.153 113.974 294.521 114.503C294.521 114.503 294.521 114.503 294.521 114.503C296.146 115.147 297.937 115.8 299.927 117.542C301.108 118.62 302.531 120.234 303.255 122.833C303.299 122.997 303.336 123.15 303.374 123.315C304.002 126.229 303.595 128.328 303.306 130.016C302.845 132.288 302.412 134.033 301.588 136.126C300.966 137.669 300.077 139.374 298.638 141.367C298.566 141.467 298.492 141.568 298.418 141.67C297.379 143.079 296.24 144.441 295.115 145.784C295.135 145.786 295.405 145.343 295.435 145.195C295.513 144.976 295.552 144.743 295.555 144.52C295.557 144.297 295.523 144.083 295.46 143.884C295.397 143.685 295.305 143.501 295.186 143.334C295.068 143.168 294.922 143.019 294.758 142.897C294.666 142.809 294.249 142.601 294.24 142.622C296.528 143.584 298.793 144.783 300.777 146.028C303.123 147.492 305.15 149.061 306.751 150.448C307.421 151.027 308.017 151.571 308.542 152.053C309.704 153.121 310.926 154.393 312.059 155.947C313.494 157.911 314.779 160.385 315.373 163.222C315.928 165.801 315.86 168.614 315.202 171.244C315.165 171.395 315.128 171.54 315.089 171.682C314.499 173.904 313.503 176.34 312.404 178.396C310.785 181.568 307.979 185.162 304.63 187.368C302.514 188.808 300.16 189.824 297.831 190.391C296.468 190.725 295.003 190.972 293.495 191.112C289.758 191.471 285.8 191.149 282.297 190.516C278.431 189.823 275.091 188.798 272.919 188.044C272.516 187.903 272.139 187.769 271.786 187.641C267.805 186.157 266.481 185.65 262.086 184.319C261.931 184.271 261.774 184.221 261.616 184.17C258.929 183.302 255.577 181.768 252.871 180.194C251.401 179.374 251.853 179.118 253.515 179.539C255.943 180.182 257.703 181.085 259.072 181.1C260.576 181.118 261.556 181.117 262.642 181.402C263.496 181.623 264.41 182.026 265.656 182.721C268.471 184.275 270.258 183.486 271.957 184.127C272.227 184.227 272.447 184.328 272.666 184.435C273.825 184.913 274.893 186.025 282.584 186.663C282.638 186.666 282.693 186.669 282.747 186.672C286.973 186.899 290.226 186.589 292.735 186.086C295.571 185.51 297.477 184.719 298.923 183.963C299.6 183.605 300.455 183.164 301.38 182.58C303.672 181.14 306.007 179.021 307.736 175.851C308.215 174.974 308.579 174.17 308.868 173.369C309.199 172.442 309.55 171.353 309.799 170.095C310.159 168.303 310.231 166.299 309.808 164.392C309.399 162.461 308.487 160.643 307.414 159.194C306.466 157.903 305.423 156.898 304.594 156.238C303.971 155.744 303.46 155.346 303.034 154.992C301.135 153.491 301.051 152.659 298.667 150.815ZM54.0094 243.745C57.5839 245.335 60.9208 246.454 64.4028 247.19C69.2511 248.201 74.2391 248.352 78.8022 246.972C83.0002 245.731 86.736 243.149 90.5052 239.402C92.3268 237.609 94.1751 235.562 96.1736 233.355C97.9338 231.41 99.5467 229.628 101.075 228.041C105.615 223.317 109.404 220.225 113.7 217.529C117.682 215.074 122.331 212.763 128.809 211.027C131.327 210.153 134.177 209.173 137.453 208.074C140.85 206.933 144.294 205.853 147.692 204.845C154.348 202.869 160.872 201.149 166.946 199.651C174.312 197.834 180.977 196.357 186.36 195.15C189.435 194.46 192.112 193.853 194.2 193.331C199.426 192.033 202.378 191.717 205.923 191.325C209.431 190.955 213.431 190.479 220.902 189.295C222.555 189.037 224.181 188.807 225.711 188.61C233.279 187.824 239.293 186.858 246.223 188.673C249.966 190.139 253.782 191.672 258.111 193.21C258.38 193.306 258.664 193.406 258.964 193.51C262.126 194.604 266.677 196.045 272.034 197.282C276.129 198.225 280.69 199.045 285.431 199.441C289.894 199.815 294.525 199.8 298.911 199.136C303.602 198.442 307.997 196.943 311.47 194.783C315.757 192.154 318.416 188.777 319.971 186.04C320.12 185.779 320.267 185.513 320.412 185.242C321.609 183.001 322.639 180.706 323.396 178.314C324.148 175.941 324.612 173.478 324.648 171.028C324.692 168.53 324.274 166.05 323.451 163.781C322.575 161.345 321.257 159.154 319.761 157.279C318.041 155.125 316.104 153.38 314.252 152.004C313.772 151.647 313.288 151.31 312.822 151.002C310.854 149.705 309.106 148.783 307.62 148.082C307.469 148.014 307.304 147.906 307.181 147.794C307.049 147.674 306.939 147.538 306.852 147.392C306.762 147.241 306.699 147.081 306.659 146.92C306.644 146.86 306.633 146.799 306.625 146.739C306.61 146.625 306.608 146.518 306.615 146.42C306.631 146.223 306.681 146.063 306.739 145.942C306.889 145.642 307.041 145.567 307.08 145.595C307.08 145.595 307.08 145.596 307.08 145.596C307.128 145.63 307.07 145.778 307.029 146.035C307.013 146.145 307.002 146.275 307.013 146.423C307.021 146.538 307.043 146.664 307.087 146.794C307.11 146.864 307.14 146.935 307.176 147.006C307.199 147.049 307.224 147.092 307.251 147.132C307.321 147.235 307.406 147.328 307.504 147.407C307.604 147.487 307.695 147.541 307.824 147.593C309.887 148.42 312.286 149.589 314.788 151.239C316.811 152.579 318.91 154.238 320.855 156.342C321.918 157.494 322.932 158.784 323.829 160.219C324.424 161.17 324.916 162.115 325.32 163.042C326.583 165.955 326.994 168.629 327.023 171.024C327.04 173.922 326.532 176.458 325.681 179.044C324.923 181.313 323.837 183.714 322.308 186.336C322.308 186.336 322.308 186.336 322.308 186.336C320.475 189.464 317.567 193.333 312.514 196.507C312.362 196.602 312.208 196.697 312.051 196.791C307.818 199.325 303.447 200.624 299.253 201.374C294.464 202.209 289.844 202.332 285.233 202.088C280.716 201.836 276.199 201.213 271.403 200.216C267.189 199.337 262.779 198.166 257.992 196.615C255.606 195.841 253.193 194.994 250.609 194.023C248.636 193.283 246.736 192.55 245.042 191.921C238.408 190.456 231.949 191.721 226.147 192.439C220.346 193.311 214.447 194.413 206.736 195.836C201.357 196.836 195.067 198.008 187.321 199.501C186.064 199.744 184.798 199.989 183.468 200.25C177.494 201.419 172.43 202.563 167.978 203.669C160.337 205.573 154.5 207.355 148.989 209.209C143.035 211.227 137.431 213.315 130.38 216.09C126.025 217.43 121.816 219.268 117.125 222.551C115.533 223.674 113.926 224.954 112.29 226.42C110.189 228.299 108.147 230.401 106.118 232.638C102.726 236.346 99.3937 240.508 95.2884 244.415C91.308 248.238 86.136 251.749 80.2552 253.036C74.3207 254.408 68.3599 253.696 63.1611 252.389C57.613 250.986 52.4021 248.809 47.8211 246.618C47.8209 246.617 47.821 246.618 47.821 246.618C45.1782 245.371 42.3942 243.536 40.2912 241.452C37.9854 239.21 36.218 236.529 35.0775 233.793C33.8085 230.772 33.2525 227.728 33.0746 224.93C32.8727 221.672 33.1569 218.718 33.5814 216.124C33.6348 215.8 33.6908 215.482 33.7487 215.17C34.2047 212.716 34.8682 210.23 35.7353 207.73C36.6474 205.107 37.8021 202.407 39.2179 199.811C39.2179 199.811 39.2179 199.811 39.2179 199.811C39.2177 199.79 39.102 200.055 39.096 200.115C39.068 200.222 39.0542 200.334 39.0547 200.443C39.0552 200.553 39.0697 200.66 39.0971 200.763C39.1244 200.866 39.1647 200.965 39.2174 201.059C39.27 201.152 39.3352 201.24 39.4107 201.318C39.4431 201.365 39.6712 201.535 39.6595 201.518C37.9072 200.471 36.1388 199.216 34.5014 197.852C32.9056 196.521 31.3708 195.043 29.9564 193.388C28.5816 191.776 27.3145 189.991 26.2751 187.994C25.2628 186.049 24.4725 183.891 24.0917 181.587C23.7132 179.336 23.754 176.948 24.2353 174.673C24.6755 172.483 25.6476 170.142 26.7008 168.35C28.6219 165.006 31.1713 161.446 34.1643 158.503C37.0774 155.611 40.62 153.094 44.5562 151.407C47.0141 150.344 49.6227 149.594 52.2637 149.16C53.7556 148.914 55.2782 148.76 56.8076 148.693C60.8655 148.514 64.9773 148.947 69.0228 149.773C72.9207 150.567 76.7649 151.726 80.5518 153.045C84.2131 154.291 87.934 155.858 91.3156 156.817C97.4044 157.801 105.408 157.292 112.643 156.924C120.02 156.474 127.395 155.794 134.682 154.987C142.011 154.171 149.182 153.228 156.22 152.178C156.361 152.157 156.504 152.136 156.644 152.115C163.49 151.084 170.862 149.801 178.416 148.181C185.499 146.66 192.745 144.846 199.77 142.626C206.928 140.349 213.813 137.709 219.97 134.292C224.692 131.655 229.122 129.017 233.321 126.462C238.139 123.529 242.581 120.753 246.551 118.325C249.274 116.658 251.773 115.155 254 113.854C256.136 112.607 258.136 111.474 260.007 110.453C265.472 107.478 269.897 105.405 274.163 103.803C278.944 102.064 283.573 100.694 289.542 100.557C293.177 100.517 297.344 101.06 301.877 103.033C302.872 103.468 303.816 103.939 304.81 104.503C306.965 105.723 309.19 107.354 311.045 109.451C312.775 111.392 314.185 113.778 315.011 116.4C315.819 118.93 316.09 121.641 315.937 124.297C315.787 126.942 315.237 129.541 314.446 132.01C313.637 134.532 312.576 136.932 311.375 139.163C310.901 140.044 310.405 140.898 309.892 141.722C305.637 147.836 306.48 146.256 309.984 139.812C310.162 139.454 310.337 139.093 310.506 138.731C311.641 136.317 312.547 133.932 313.196 131.641C313.941 129.022 314.346 126.515 314.404 124.234C314.486 121.373 314.002 118.883 313.223 116.984C313.091 116.66 312.95 116.349 312.805 116.059C311.76 113.977 310.478 112.416 309.146 111.136C307.295 109.389 305.573 108.266 303.343 107.043C299.705 105.179 295.965 103.47 289.557 103.154C289.494 103.151 289.43 103.149 289.367 103.147C283.341 103.038 278.812 104.711 275.12 106.291C270.608 108.306 267.234 110.436 263.282 112.515C262.695 112.827 262.178 113.1 261.666 113.37C258.312 115.161 255.934 116.242 248.253 121.007C245.005 123.021 240.815 125.728 235.143 129.358C231.433 131.724 227.079 134.489 221.874 137.59C221.456 137.838 221.026 138.088 220.583 138.34C213.831 142.133 207.22 144.695 201.158 146.81C193.211 149.541 186.006 151.458 179.525 153.022C171.061 155.045 163.827 156.429 157.537 157.527C151.74 158.532 146.724 159.282 142.289 159.897C140.216 160.183 137.942 160.468 135.34 160.76C129.057 161.462 121.354 162.145 112.964 162.556C105.693 162.764 98.4036 163.437 89.9221 162.016C85.8408 160.806 82.3716 159.277 78.793 158.058C75.1091 156.764 71.4779 155.694 67.9568 155.015C67.9409 155.011 67.925 155.008 67.9091 155.005C64.6913 154.388 60.9979 153.934 57.0776 154.143C53.7003 154.321 50.161 155.026 46.7966 156.517C43.6791 157.884 40.7228 159.938 38.1494 162.513C35.6549 165.005 33.541 167.873 31.624 171.193C30.6855 172.854 30.1675 174.176 29.8027 175.842C29.468 177.438 29.4378 179.071 29.7044 180.668C29.9723 182.292 30.5417 183.884 31.3237 185.387C32.1259 186.931 33.1462 188.383 34.2857 189.719C35.4685 191.105 36.7828 192.374 38.1484 193.512C39.6102 194.726 41.0475 195.743 42.5891 196.666C42.8002 196.781 43.2467 197.122 43.4627 197.356C43.7254 197.623 43.9529 197.924 44.1381 198.247C44.3243 198.571 44.4681 198.918 44.5663 199.276C44.6651 199.636 44.7179 200.01 44.7225 200.385C44.7272 200.762 44.6829 201.14 44.5907 201.507C44.5219 201.823 44.3029 202.35 44.1782 202.555C42.859 204.99 41.8802 207.352 41.103 209.622C40.292 212.005 39.7544 214.208 39.4221 216.135C39.3671 216.454 39.3165 216.769 39.2703 217.079C38.8359 219.998 38.7833 222.451 38.9272 224.526C39.1391 227.463 39.7192 229.653 40.4249 231.488C41.3504 233.823 42.4629 235.636 44.1183 237.452C45.5746 238.985 47.1592 240.349 50.0344 241.843C51.2826 242.477 52.6064 243.116 54.0094 243.745Z" fill="#D4966F"/>
</g>
</svg>
