<svg width="43" height="70" viewBox="0 0 43 70" fill="none" xmlns="http://www.w3.org/2000/svg">
<path d="M12.5323 55.8268C12.4922 55.2413 12.4286 54.6757 12.3472 54.121C12.1347 52.6727 11.7989 51.3028 11.454 49.8862C11.1267 48.5346 10.7882 47.1438 10.565 45.5836C10.3992 44.3861 10.2875 43.1361 10.3766 41.6084C10.3899 41.3984 10.406 41.205 10.4243 41.0261C10.4193 41.0302 10.4369 41.3089 10.4633 41.3698C10.4918 41.4828 10.5344 41.588 10.5884 41.6841C10.6441 41.7832 10.7119 41.8732 10.7912 41.954C10.8731 42.0373 10.9676 42.1111 11.0739 42.1724C11.1835 42.2356 11.3059 42.285 11.4326 42.3153C11.5122 42.3424 11.8169 42.3679 11.8195 42.3497C11.2896 42.3083 10.8056 42.262 10.3496 42.2135C9.83217 42.1585 9.35088 42.1006 8.87969 42.0436C8.38858 41.9842 7.90844 41.9259 7.40977 41.8729C6.94398 41.8233 6.46203 41.7785 5.93985 41.7418C5.48559 41.7099 5.00089 41.6841 4.46992 41.6668C4.01691 41.6521 3.5302 41.6436 3.00001 41.6426C2.85079 41.6486 2.51137 41.6111 2.31686 41.5532C2.09575 41.4944 1.87941 41.4059 1.67654 41.2892C1.47893 41.1757 1.29409 41.0355 1.12858 40.8714C0.967259 40.7115 0.824108 40.5287 0.705542 40.3265C0.589848 40.1293 0.49777 39.9136 0.435269 39.6862C0.376802 39.497 0.33558 39.1565 0.33976 39C0.337412 38.8977 0.334819 38.794 0.331976 38.6888C0.319001 38.2087 0.309906 37.7286 0.304057 37.25C0.296891 36.6636 0.294597 36.0794 0.296013 35.5C0.297452 34.9107 0.302728 34.3264 0.310617 33.75C0.318727 33.1574 0.3296 32.573 0.341903 32C0.354718 31.4032 0.369086 30.8187 0.383502 30.25C0.398774 29.6476 0.414102 29.0628 0.427697 28.5C0.423946 28.3486 0.463575 28.0213 0.520888 27.8367C0.581334 27.6183 0.67052 27.4099 0.7835 27.2186C0.897933 27.0248 1.03658 26.8484 1.19382 26.6938C1.3533 26.537 1.5321 26.4023 1.72422 26.2932C1.91928 26.1823 2.12809 26.0979 2.3424 26.0423C2.52965 25.9882 2.8536 25.9535 3 25.9607C3.52735 25.9694 4.02775 25.9746 4.49683 25.9742C5.04006 25.9738 5.54128 25.9659 5.99365 25.9477C6.40795 25.9311 6.78128 25.9058 7.10841 25.8695C7.241 25.8548 7.36816 25.8428 7.49048 25.8333C8.07797 25.7876 8.55412 25.7991 8.9873 25.8411C9.50876 25.8918 9.96795 25.9868 10.4841 26.08C10.9189 26.1585 11.3941 26.2357 11.9809 26.284C12.0216 26.2866 11.9238 26.3016 11.932 26.31C11.9169 26.3197 11.9033 26.3308 11.8925 26.3419C11.8823 26.3524 11.8744 26.3628 11.8682 26.3726C11.8623 26.382 11.8577 26.3909 11.8537 26.3999C11.8499 26.4085 11.8466 26.4173 11.8437 26.4264C11.8433 26.4132 11.8335 26.4947 11.8372 26.4515C11.8404 26.1934 11.843 25.9108 11.8471 25.597C11.8967 23.0324 12.3051 21.127 12.9166 19.2848C13.3502 18.0109 13.8987 16.7783 14.6515 15.4445C15.0166 14.8003 15.5334 13.8913 16.2123 12.8687C17.3409 11.1506 18.9673 9.14054 20.8645 7.45831C22.8024 5.70863 24.996 4.33414 26.7182 3.41592C27.3353 3.08255 27.8943 2.79919 28.3546 2.5606C29.9024 1.75543 31.6746 1.25106 33.4064 0.982081C35.7972 0.604516 38.0885 0.676836 39.6749 0.706124C39.9613 0.710724 40.2302 0.720924 40.4812 0.735088C40.5842 0.738994 40.7127 0.760918 40.8093 0.794C40.9179 0.829527 41.0164 0.879077 41.1032 0.937494C41.1961 1.00011 41.2755 1.07279 41.3412 1.1502C41.4124 1.23398 41.4678 1.32334 41.5089 1.41311C41.5436 1.48911 41.5681 1.56542 41.5838 1.63971C41.5886 1.66255 41.592 1.68422 41.5943 1.70508C41.5934 2.13969 41.41 2.03055 41.3137 1.78216C41.294 1.74277 41.2724 1.69907 41.2471 1.65153C41.236 1.63063 41.2239 1.61008 41.2107 1.58988C41.1724 1.53135 41.1253 1.47628 41.0703 1.42775C41.0181 1.3817 40.9589 1.34156 40.8942 1.30998C40.8325 1.2798 40.7659 1.25748 40.6967 1.24479C40.6259 1.23234 40.572 1.22993 40.4926 1.23568C39.2153 1.33276 37.6301 1.54672 35.9005 2.00578C35.0661 2.22946 34.353 2.42363 33.7465 2.58505C31.6398 3.19582 30.3326 3.24755 27.3479 4.70667C26.8662 4.95498 26.3744 5.234 25.8187 5.5909C24.2833 6.58333 23.0899 7.63127 22.0331 8.73272C20.5448 10.3032 19.3369 11.9427 18.0967 14.0028C17.4045 15.1649 16.7072 16.4733 16.0255 18.0218C15.7209 18.7158 15.4896 19.3672 15.3077 19.9868C14.6033 22.4703 14.5921 24.3377 14.6814 26.5318C14.6895 26.6831 14.6504 27.0189 14.5957 27.2127C14.5387 27.435 14.4528 27.6526 14.3391 27.8581C14.2272 28.0603 14.0884 28.2509 13.9243 28.4232C13.7629 28.5927 13.5769 28.7446 13.3693 28.8716C13.1654 28.9965 12.9407 29.097 12.7031 29.1658C12.5048 29.2308 12.1436 29.2771 11.981 29.2745C11.5075 29.2966 11.011 29.3132 10.4841 29.3222C10.0114 29.3303 9.51421 29.3323 8.9873 29.3266C8.51367 29.3215 8.01601 29.3102 7.49048 29.2916C7.01528 29.2748 6.51728 29.2521 5.99365 29.2225C5.5167 29.1955 5.01847 29.163 4.49683 29.1241C4.28826 29.1086 4.07596 29.092 3.85977 29.0745C3.56565 29.0506 3.27921 29.0286 3 29.0086C2.97324 29.0079 3.11503 28.9881 3.12592 28.9735C3.16707 28.9563 3.20479 28.934 3.23744 28.9085C3.2707 28.8826 3.2989 28.8536 3.32244 28.8224C3.34638 28.7908 3.36565 28.7568 3.38043 28.7212C3.39545 28.685 3.40572 28.6469 3.41087 28.6092C3.41394 28.5988 3.42114 28.4679 3.41149 28.5C3.37981 29.1193 3.35846 29.7005 3.34611 30.25C3.33216 30.8705 3.32968 31.4506 3.33674 32C3.34468 32.6178 3.3647 33.1966 3.39404 33.75C3.42629 34.3581 3.4698 34.9354 3.52095 35.5C3.57445 36.0905 3.6363 36.667 3.70235 37.25C3.767 37.8206 3.83568 38.3976 3.90449 39C3.92147 39.0129 3.91147 38.8048 3.90244 38.7594C3.89065 38.6774 3.86742 38.5951 3.83334 38.5168C3.79974 38.4395 3.75574 38.366 3.70161 38.2984C3.64828 38.2318 3.58491 38.1706 3.51173 38.1174C3.43976 38.0651 3.35806 38.0207 3.26992 37.9878C3.2239 37.9585 2.99628 37.9266 3.00001 37.9254C3.4668 37.8784 3.95449 37.8329 4.46992 37.7904C4.93557 37.752 5.42386 37.716 5.93985 37.6834C6.40597 37.654 6.89471 37.6273 7.40977 37.6043C7.87714 37.5833 8.36618 37.5653 8.87969 37.5508C9.14227 37.5434 9.41123 37.5369 9.68697 37.5314C9.90662 37.527 10.1275 37.5231 10.3496 37.5196C10.8344 37.5122 11.3247 37.5069 11.8195 37.5038C12.0272 37.4917 12.5494 37.5557 12.8221 37.648C13.148 37.7444 13.457 37.8883 13.7345 38.068C14.0115 38.2472 14.2577 38.4612 14.4692 38.7C14.6801 38.9382 14.857 39.2013 14.9975 39.4826C15.1376 39.7631 15.2414 40.062 15.305 40.3715C15.3675 40.6301 15.3943 41.1142 15.373 41.3135C15.3027 42.5438 15.3375 43.8889 15.3965 45.2746C15.4579 46.6515 15.551 48.0474 15.6582 49.4349C15.7681 50.8544 15.8938 52.2648 16.0269 53.6338C16.1688 55.0923 16.3194 56.5038 16.4748 57.8452C16.6497 59.3544 16.8303 60.7706 17.0129 62.0534C17.1999 63.3679 17.39 64.5466 17.5763 65.5254C17.6209 65.7603 17.6668 65.9994 17.712 66.2316C17.7216 66.2411 17.668 66.0461 17.6443 66.008C17.6117 65.9349 17.5692 65.8653 17.5189 65.8028C17.469 65.7407 17.4116 65.6856 17.3484 65.6386C17.2858 65.592 17.2173 65.5534 17.1444 65.5237C17.0722 65.4943 16.9956 65.4739 16.9178 65.4634C16.8769 65.451 16.6781 65.4571 16.6893 65.4611C17.2146 65.3854 17.7523 65.3077 18.3014 65.2285C18.8285 65.1524 19.3661 65.0749 19.9136 64.9963C20.4422 64.9204 20.9799 64.8435 21.5261 64.7658C22.0558 64.6905 22.5936 64.6145 23.1388 64.538C23.6697 64.4635 24.2077 64.3887 24.7521 64.3136C25.284 64.2403 25.8221 64.1668 26.3658 64.0934C26.3697 64.0862 26.1681 64.131 26.1255 64.1537C26.047 64.1837 25.9722 64.2234 25.9037 64.271C25.8353 64.3185 25.7732 64.3738 25.7185 64.4358C25.6639 64.4975 25.6166 64.566 25.5777 64.64C25.539 64.7138 25.5088 64.7931 25.4886 64.8751C25.4711 64.9201 25.4521 65.1262 25.4583 65.122C25.4561 63.8078 25.4591 62.4653 25.4696 61.1016C25.4797 59.7793 25.4967 58.437 25.5227 57.0813C25.5308 56.6544 25.5399 56.2262 25.5499 55.7969C25.5706 54.9054 25.5837 53.9923 25.591 53.061C25.6013 51.7535 25.6001 50.4101 25.5922 49.0407C25.5846 47.7219 25.5708 46.3789 25.5552 45.0203C25.5399 43.6924 25.5228 42.3496 25.5081 41C25.4997 40.8337 25.5428 40.4408 25.6068 40.226C25.6736 39.9719 25.7744 39.7267 25.9049 39.4996C26.0351 39.2726 26.1947 39.0635 26.3785 38.8785C26.5622 38.6936 26.7703 38.5324 26.9969 38.4003C27.2234 38.2681 27.4686 38.1654 27.7232 38.0965C27.9381 38.0307 28.3329 37.9855 28.5 37.9922C29.0274 37.9874 29.5553 37.9831 30.0833 37.9797C30.6112 37.9763 31.1391 37.9737 31.6667 37.9721C32.195 37.9706 32.7229 37.9701 33.25 37.9709C33.7788 37.9717 34.3068 37.9739 34.8333 37.9775C35.3627 37.9812 35.8906 37.9865 36.4167 37.9936C36.9465 38.0008 37.4745 38.0097 38 38.0208C38.0087 38.0153 37.7931 38.0385 37.7493 38.0596C37.6663 38.0838 37.5869 38.1191 37.5148 38.1632C37.4425 38.2075 37.3774 38.2604 37.3205 38.3205C37.2635 38.3806 37.2145 38.4481 37.1747 38.5214C37.1349 38.5949 37.1045 38.6744 37.0852 38.7561C37.0689 38.7997 37.0508 39.0107 37.0606 39C37.0729 38.5909 37.0865 38.1836 37.1017 37.7784C37.1083 37.6036 37.1149 37.4274 37.1215 37.25C37.1429 36.679 37.1646 36.0949 37.1865 35.5C37.2076 34.926 37.229 34.342 37.2506 33.75C37.2717 33.1735 37.2929 32.5896 37.3143 32C37.3353 31.4214 37.3564 30.8375 37.3776 30.25C37.3985 29.6696 37.4196 29.0856 37.4407 28.5C37.4407 28.5 37.4407 28.5 37.4407 28.5C37.4381 28.4746 37.4556 28.6254 37.4689 28.6413C37.4846 28.6879 37.5065 28.732 37.5329 28.7713C37.5593 28.8107 37.5902 28.8455 37.6246 28.8754C37.659 28.9053 37.697 28.9306 37.7381 28.9508C37.7792 28.9709 37.8234 28.9858 37.8685 28.9946C37.8838 29.001 38.0279 29.0113 38 29.0026C37.459 28.983 36.9178 28.9635 36.3779 28.9439C35.8354 28.9243 35.2943 28.9046 34.7558 28.885C34.2119 28.8652 33.6707 28.8455 33.1337 28.8258C32.5882 28.8058 32.047 28.7859 31.5116 28.766C30.9643 28.7458 30.423 28.7256 29.8894 28.7056C29.34 28.685 28.7987 28.6645 28.2673 28.6443C28.1535 28.6445 27.9335 28.6198 27.8003 28.5838C27.6474 28.5465 27.4997 28.4922 27.3604 28.4229C27.2204 28.3533 27.0889 28.2685 26.9684 28.1705C26.8473 28.0719 26.7372 27.9599 26.641 27.8368C26.5441 27.7129 26.4612 27.5778 26.395 27.4352C26.3337 27.3097 26.2659 27.0985 26.2471 26.9876C25.9962 25.6632 25.8945 24.2518 25.9958 23.0425C26.1042 21.6117 26.4787 20.3579 26.9627 19.3858C26.9983 19.3136 27.0341 19.2435 27.071 19.1735C27.8206 17.7614 28.7633 16.8355 29.6434 16.1502C30.8049 15.2654 31.8881 14.7441 33.0237 14.2914C34.101 13.8733 35.2429 13.528 36.6762 13.2454C37.3894 13.1068 38.1766 12.9865 39.0705 12.9052C39.5135 12.8652 39.9781 12.8405 40.4467 12.8348C40.4467 12.8348 40.4467 12.8348 40.4467 12.8348C40.5128 12.8315 40.5083 12.8288 40.5558 12.8178C40.5905 12.8078 40.6241 12.7934 40.6555 12.7751C40.6864 12.7569 40.7152 12.7349 40.7404 12.71C40.7653 12.6854 40.7866 12.658 40.8037 12.6292C40.8206 12.6006 40.8333 12.5707 40.8419 12.5397C40.8515 12.4958 40.8525 12.5076 40.8552 12.443C40.8566 11.8762 40.8627 11.294 40.8736 10.7025C40.8842 10.1294 40.8994 9.54743 40.9195 8.96198C40.9392 8.38351 40.9637 7.80162 40.9931 7.22148C41.0226 6.63779 41.0572 6.05587 41.0969 5.48099C41.1376 4.89154 41.1838 4.30948 41.2357 3.74049C41.2493 3.59101 41.2633 3.44243 41.2778 3.29486C41.473 1.2967 41.7446 1.7406 41.8757 3.74049C41.8762 3.74777 41.8767 3.75507 41.8771 3.76239C41.9156 4.35779 41.9412 4.93168 41.9602 5.48099C41.9815 6.09308 41.9946 6.67466 42.0087 7.22148C42.0248 7.84965 42.042 8.43196 42.074 8.96198C42.113 9.60925 42.174 10.1785 42.2815 10.6581C42.2848 10.6729 42.2881 10.6877 42.2914 10.7025C42.436 11.3473 42.5613 11.9136 42.6652 12.443C42.688 12.5836 42.6719 12.865 42.6365 13.038C42.5984 13.2389 42.5317 13.434 42.4408 13.6152C42.3485 13.7993 42.2316 13.9691 42.0952 14.1202C41.9574 14.2729 41.7995 14.4067 41.6263 14.5182C41.4521 14.6303 41.2622 14.7198 41.0624 14.7833C40.8899 14.8447 40.5901 14.8889 40.4427 14.8936C39.4239 15.0155 38.4526 15.0689 37.0089 15.1831C36.7042 15.2087 36.3769 15.2394 36.0305 15.2785C35.0942 15.385 34.3175 15.6215 33.6752 15.9146C32.4404 16.4835 31.7131 17.2289 31.1023 17.8935C30.8144 18.2094 30.5487 18.5143 30.2589 18.8182C29.8271 19.2847 29.5252 19.5711 29.1479 20.1524C28.8223 20.6942 28.3882 21.5073 28.2925 23.1346C28.255 24.027 28.3161 25.0083 28.6652 26.443C28.6756 26.464 28.6427 26.3541 28.6359 26.3453C28.6225 26.3141 28.6057 26.2847 28.5864 26.2583C28.5674 26.2322 28.5461 26.2089 28.5227 26.1883C28.4998 26.1681 28.4748 26.1505 28.4477 26.1355C28.421 26.1208 28.3921 26.1087 28.3614 26.0998C28.3546 26.0927 28.2449 26.0817 28.2673 26.0835C28.7778 26.0697 29.3178 26.0536 29.8894 26.0348C30.2424 26.0232 30.6074 26.0107 30.985 25.9971C31.1617 25.9907 31.3373 25.9844 31.5116 25.9782C32.0645 25.9585 32.6051 25.9395 33.1337 25.9211C33.6874 25.902 34.2279 25.8835 34.7558 25.8658C35.3103 25.8473 35.8509 25.8295 36.3779 25.8124C36.9334 25.7944 37.4739 25.7773 38 25.7609C38 25.7609 38 25.7609 38 25.7609C38.1575 25.7517 38.512 25.7892 38.7101 25.8459C38.9448 25.9058 39.1705 25.9968 39.3791 26.1146C39.5897 26.2333 39.783 26.3789 39.9539 26.5461C40.1265 26.7148 40.2764 26.9057 40.3993 27.1129C40.5234 27.3221 40.6198 27.5479 40.6849 27.7817C40.748 27.9824 40.791 28.3429 40.7869 28.5C40.8049 29.1033 40.8219 29.6863 40.8379 30.25C40.855 30.8551 40.8711 31.438 40.8862 32C40.9024 32.6071 40.9176 33.1899 40.9317 33.75C40.9471 34.3594 40.9614 34.9421 40.9746 35.5C40.9892 36.1121 41.0026 36.6945 41.0151 37.25C41.0289 37.8649 41.0416 38.447 41.0536 39C41.0632 39.1713 41.0193 39.5735 40.9556 39.7907C40.8875 40.0528 40.7849 40.3035 40.6535 40.5342C40.5199 40.7688 40.357 40.9828 40.1712 41.1712C39.9823 41.3629 39.7695 41.5283 39.5399 41.6632C39.3062 41.8007 39.0551 41.9064 38.7965 41.9774C38.5747 42.0465 38.1677 42.0934 38 42.0875C38 42.0875 38 42.0875 38 42.0875C37.5631 42.097 37.1454 42.1063 36.7445 42.1154C36.6381 42.1178 36.5287 42.1199 36.4167 42.1217C35.9369 42.1292 35.4065 42.1309 34.8333 42.1279C34.336 42.1254 33.8065 42.1195 33.25 42.111C32.7433 42.1034 32.2142 42.0936 31.6667 42.0825C31.154 42.0721 30.6252 42.0605 30.0833 42.0482C29.5665 42.0366 29.0378 42.0243 28.5 42.012C28.4922 42.0174 28.7129 41.9937 28.7591 41.9718C28.8446 41.9469 28.9267 41.9106 29.0015 41.8649C29.0761 41.8195 29.1436 41.765 29.2029 41.7029C29.262 41.6411 29.313 41.5716 29.3547 41.4956C29.3963 41.42 29.4283 41.3379 29.449 41.253C29.4665 41.2075 29.4859 40.9911 29.4766 41C29.448 42.3161 29.4215 43.6687 29.404 45.0203C29.3864 46.3739 29.3777 47.7266 29.3847 49.0407C29.3891 49.8799 29.3999 50.7035 29.4189 51.5015C29.4304 51.9882 29.4404 52.5098 29.4492 53.061C29.4684 54.276 29.4814 55.6349 29.4908 57.0813C29.4991 58.3656 29.5046 59.7188 29.5092 61.1016C29.5135 62.4261 29.517 63.7778 29.5212 65.1219C29.5277 65.2772 29.4903 65.6405 29.4355 65.8401C29.3781 66.0763 29.2919 66.3052 29.1801 66.5199C29.0683 66.7348 28.931 66.9354 28.772 67.1169C28.6129 67.2985 28.432 67.4611 28.2338 67.6001C28.0353 67.7394 27.8195 67.855 27.593 67.943C27.4019 68.0238 27.046 68.1085 26.8914 68.1226C26.3492 68.1954 25.8104 68.2679 25.2773 68.3401C24.7325 68.4138 24.1937 68.4871 23.6634 68.5597C23.1156 68.6348 22.5768 68.7092 22.05 68.7827C21.4983 68.8596 20.9596 68.9356 20.4372 69.0103C19.8801 69.0899 19.3415 69.1681 18.8253 69.2446C18.2598 69.3283 17.7212 69.41 17.2147 69.4891C17.0494 69.5201 16.6523 69.5308 16.4331 69.4997C16.168 69.4702 15.909 69.4069 15.6643 69.3139C15.4139 69.2187 15.1786 69.0926 14.9643 68.941C14.7445 68.7856 14.5467 68.6032 14.3759 68.4008C14.2002 68.1927 14.0533 67.9635 13.939 67.7232C13.8316 67.5162 13.7134 67.1232 13.6886 66.9616C13.6372 66.7298 13.5862 66.5013 13.5365 66.2818C13.1934 64.7702 12.9949 63.6529 12.873 62.7376C12.6444 61.0034 12.6905 60.0006 12.653 58.4195C12.6369 57.7114 12.6049 56.8871 12.5323 55.8268Z" fill="#463326"/>
</svg>
