<svg width="49" height="71" viewBox="0 0 49 71" fill="none" xmlns="http://www.w3.org/2000/svg">
<path d="M36.439 4.42054C38.0777 5.74589 39.8351 6.43872 41.6966 7.5088C43.3903 8.48791 45.1655 9.82039 46.3286 12.0545C46.3796 12.1531 46.4293 12.2534 46.4776 12.3554C47.6853 14.9869 47.6876 16.6603 47.7956 18.3897C47.8478 19.8871 47.9985 21.5809 48.205 24.2273C48.2141 24.3531 48.2216 24.4782 48.2275 24.6027C48.2826 28.2569 46.98 31.1876 46.1393 33.4335C45.5121 35.0264 44.9926 36.3206 44.8634 37.2814C44.5944 39.2334 43.3837 39.2814 42.4454 40.9788C42.2432 41.3412 42.0492 41.786 41.8761 42.3398C41.0482 44.9769 40.1527 46.5872 38.8402 48.4007C38.5986 48.7334 38.3423 49.0732 38.0684 49.4273C37.2143 50.5338 35.7467 52.8746 34.3368 55.3129C32.8405 57.9101 31.4095 60.6231 30.9382 62.2131C30.8899 62.377 30.8369 62.5381 30.7796 62.6964C29.7643 65.4785 27.2731 67.7936 25.9871 69.3773C25.9366 69.4449 25.8644 69.5343 25.7826 69.6143C25.7244 69.6708 25.6655 69.719 25.6033 69.7629C25.4479 69.8724 25.2798 69.945 25.1155 69.9845C24.9359 70.0277 24.7612 70.0322 24.6027 70.0096C24.4266 69.9845 24.2698 69.9263 24.1388 69.8502C23.9897 69.7636 23.8741 69.6543 23.7901 69.5415C23.7657 69.5086 23.7434 69.4749 23.7241 69.4418C23.613 69.244 23.681 69.1057 23.7748 69.0527C23.7749 69.0527 23.775 69.0526 23.775 69.0526C23.8985 68.9865 24.058 69.0082 24.177 69.0856C24.1773 69.0857 24.1775 69.0859 24.1778 69.0861C24.2391 69.1268 24.3096 69.157 24.3856 69.1723C24.4556 69.1864 24.5301 69.1877 24.6027 69.1742C24.6704 69.1617 24.7361 69.1362 24.7932 69.0992C24.8472 69.0643 24.8931 69.0195 24.9282 68.9675C24.9694 68.9075 24.9673 68.8875 24.9999 68.8013C25.3086 68.0119 25.6063 67.1106 25.8931 66.0455C26.5222 63.6293 27.2575 62.9347 28.2611 61.2996C28.6963 60.5888 29.1949 59.6736 29.7557 58.3355C30.4525 56.6713 30.9413 55.222 31.456 53.7975C32.2776 51.5105 33.1576 49.3262 34.9458 46.4932C34.9809 46.4374 35.0164 46.3813 35.0523 46.3249C36.8836 43.4334 36.8789 41.4431 37.6189 38.8716C38.0757 37.2493 38.8317 35.4175 40.3688 32.8617C40.6057 32.4701 40.825 32.068 41.0136 31.6981C42.6554 28.4107 42.5128 26.4255 41.9344 24.6027C41.5167 23.1748 41.0076 22.1406 40.3297 20.3854C40.1755 20.0055 40.0111 19.6057 39.8312 19.1811C39.4623 18.3101 39.0445 17.4237 38.561 16.5489C37.8898 15.3321 37.0863 14.1362 36.1583 13.0471C35.2022 11.9215 34.1132 10.913 32.9738 10.0962C31.6606 9.15053 30.2838 8.46495 29.0394 8.05522C28.2782 7.80235 27.5492 7.6482 26.9563 7.58736C26.2678 7.51764 25.5195 7.48273 24.6027 7.51201C23.0402 7.57665 21.7898 7.78338 20.2113 8.22462C18.8472 8.61803 17.47 9.18302 16.1306 9.92158C15.1371 10.4689 14.1647 11.111 13.232 11.8408C12.9765 12.0407 12.7256 12.2544 12.4809 12.4809C11.4267 13.4553 10.4904 14.6703 9.74892 16.0307C9.04449 17.3195 8.5153 18.7348 8.17065 20.1969C7.82395 21.7101 7.68013 22.9531 7.64577 24.6027C7.65653 25.9354 7.84542 27.0988 8.1071 28.6697C8.26405 29.5819 8.46275 30.5251 8.70515 31.5243C9.30012 33.9673 10.1128 36.5974 10.9734 39.1393C11.9106 41.9067 12.9003 44.5605 13.7277 46.7537C14.173 47.9333 14.5688 48.9745 14.8906 49.8384C15.6324 51.83 16.1508 53.1618 16.6934 54.353C17.3943 55.8843 18.1438 57.2034 19.5596 59.4082C19.9405 59.9984 20.3546 60.7001 20.7433 61.4111C21.8382 63.4144 22.9014 65.7672 23.6006 67.9974C24.0749 69.5146 23.4877 69.4852 22.4852 68.2237C21.0311 66.3936 20.2953 64.6171 19.1765 63.8741C18.6985 63.5642 18.2703 63.2685 17.8976 62.9893C16.5563 61.9869 15.8551 61.0637 15.2272 58.7189C14.8808 57.4222 14.3003 56.6002 13.6895 55.933C12.8984 55.0766 12.0568 54.4905 11.6955 53.556C11.2301 52.34 11.5526 51.8057 9.96699 48.5958C9.38517 47.4066 8.54438 45.8497 7.34892 43.7167C6.87923 42.8773 6.44032 42.0715 6.02986 41.2975C4.45405 38.3244 3.29738 35.8272 2.4243 33.6508C1.38929 31.047 0.760848 29.0276 0.366496 26.9228C0.241958 26.244 0.159148 25.4225 0.175906 24.6028C0.19025 22.9713 0.537029 20.504 1.24015 18.3443C1.85617 16.3758 2.75976 14.4018 3.8225 12.6017C4.4749 11.492 5.18289 10.4459 5.89597 9.47604C6.34657 8.86268 6.89268 8.20206 7.53213 7.53216C8.83086 6.16621 10.5308 4.77163 12.4883 3.62652C14.2954 2.56171 16.3143 1.71654 18.3237 1.16305C20.469 0.549233 22.9129 0.26998 24.6027 0.21968C25.77 0.17118 26.9443 0.203442 27.8968 0.249567C29.2399 0.311815 30.2075 0.511128 30.9905 0.756027C33.3432 1.56963 33.9149 2.49621 36.3151 4.32134C36.3559 4.35402 36.3972 4.38708 36.439 4.42054Z" fill="#463326"/>
<circle cx="24.6027" cy="24.6027" r="7.72603" stroke="#463326" stroke-width="6" stroke-linejoin="round"/>
</svg>
