<svg xmlns="http://www.w3.org/2000/svg" data-name="Livello 1" viewBox="0 0 700 700"><defs><style>.cls-4{fill:#371e0f}.cls-5{fill:none;stroke:#371e0f;stroke-miterlimit:10;stroke-width:.25px}.cls-6{fill:#402c24}</style></defs><path d="M93.09 348.11s28.44-36.08 63-57.18c0 0 20.26 36.76 33.32 56v1.2c0 79.79 65.22 144.71 145.39 144.71-19.5 12.73-59.8 31.21-59.8 31.21 17.5 35.88 59.77 64.63 59.77 64.63-133.28 0-241.71-107.91-241.71-240.57" style="fill:#fbbc02"/><path d="M336.38 99.7s40.32 27.33 58.27 63c0 0-37.75 19.86-57.07 32.87h-1.2c-80.16 0-145.38 64.92-145.38 144.7-12.82-19.37-31.38-59.48-31.38-59.48-36.05 17.42-64.94 59.48-64.94 59.48 0-132.64 108.43-240.56 241.7-240.56" style="fill:#7dabc7"/><path d="M584.91 341.32s-27.71 38.87-63.54 56.73c0 0-19.7-36.3-32.77-55.52v-1.21c0-79.78-65.21-144.7-145.39-144.7C362.7 183.86 403 165.39 403 165.39c-17.51-35.88-59.78-64.63-59.78-64.63 133.28 0 241.71 107.91 241.71 240.56" style="fill:#db936a"/><path d="M35 449.38c-4.3 2.61-6.9 6.09-5.05 11.14 1.45 4 4.76 6.28 9 4.77 4.64-1.68 4.37-6 4.56-10.23.32-6.32-.12-12.05 7-14.62 6.38-2.3 11.82 1.55 14 7.46 2.3 6.28 0 11.27-5.31 14.91l-3.06-4.12c3.38-2.21 5.27-5.1 3.78-9.22-1.14-3.1-3.84-5.56-7.25-4.32s-3.78 3.82-4 7.18l-.67 9.29a10.23 10.23 0 0 1-7 8.4c-7.18 2.59-13.06-.92-15.59-7.85s.34-13 6.66-16.63Z" class="cls-4"/><path d="M35 449.38c-4.3 2.61-6.9 6.09-5.05 11.14 1.45 4 4.76 6.28 9 4.77 4.64-1.68 4.37-6 4.56-10.23.32-6.32-.12-12.05 7-14.62 6.38-2.3 11.82 1.55 14 7.46 2.3 6.28 0 11.27-5.31 14.91l-3.06-4.12c3.38-2.21 5.27-5.1 3.78-9.22-1.14-3.1-3.84-5.56-7.25-4.32s-3.78 3.82-4 7.18l-.67 9.29a10.23 10.23 0 0 1-7 8.4c-7.18 2.59-13.06-.92-15.59-7.85s.34-13 6.66-16.63Z" class="cls-5"/><path d="m89.94 499.99.17 5.48-26.61.01-13.53 7.6-2.55-4.48 13.53-7.6 13.81-22.6 4.61 2.98-12.75 19.43 23.32-.82zM83.93 541.3c-3.22 3.87-4.56 8-1.17 12.18 2.67 3.3 6.56 4.44 10 1.64C96.67 552 95 548 93.82 544c-1.76-6.1-4-11.37 1.87-16.1 5.3-4.25 11.69-2.35 15.67 2.58 4.21 5.22 3.66 10.68-.2 15.85l-4.25-2.93c2.5-3.17 3.36-6.53.6-10-2.08-2.58-5.44-4-8.27-1.77s-2.35 4.83-1.5 8.1l2.42 9A10.16 10.16 0 0 1 96.3 559c-6 4.77-12.68 3.33-17.33-2.43s-3.91-12.46.91-17.91ZM138.75 567.1l-8.29-7.4 3.08-3.43 20.28 18.07-3.08 3.44-8.13-7.24-23.79 26.44-3.85-3.44 23.78-26.44zM172.57 588.22l21.2 13.43-2.49 3.9-16.82-10.67-6.48 10.14 13.89 8.79-2.49 3.9-13.9-8.8-7.67 12.02 16.82 10.66-2.49 3.9-21.21-13.43 21.64-33.84zM212.88 619.79l-.14-.06-13.7 29.49-5.06-2.14 17.28-36.26 6.26 2.66-.16 18.83 13.52-13.17 6.27 2.65-14.28 37.53-5.05-2.15 11.85-30.26-.14-.06-16.65 15.94v-23zM306.7 658.05c-.43 5.83-.09 15.88 7.69 16.46s9.6-9.34 10-15.16.08-16-7.69-16.54-9.6 9.34-10 15.24m23.12 1.69c-.24 3.23-1.75 20.62-15.78 19.59-6.48-.46-13.92-5.64-12.74-21.67s9.15-20.17 15.79-19.68c6.4.47 13.92 5.65 12.73 21.76M355.5 639.1l3.6 39.93 5.16-.45-1.7-18.79 16.88-1.5-.42-4.6-16.86 1.52-1.09-11.97 20.11-1.79-.42-4.61-25.26 2.26z" class="cls-6"/><path d="m447.33 618.92 22.9-10.15 1.89 4.21-18.19 8.06 4.9 10.94 15.01-6.65 1.88 4.2-15.01 6.66 5.81 12.98 18.17-8.06 1.89 4.21-22.9 10.15-16.35-36.55z" class="cls-4"/><path d="m447.33 618.92 22.9-10.15 1.89 4.21-18.19 8.06 4.9 10.94 15.01-6.65 1.88 4.2-15.01 6.66 5.81 12.98 18.17-8.06 1.89 4.21-22.9 10.15-16.35-36.55z" class="cls-5"/><path d="m502.72 596.54 5.49 18.61 9.55-6.27Zm6.88 23.22 3.43 12-5.28 1.25-11.12-39.7 5.55-3.64 32.28 25.8-3.24 4.35-9.69-7.93ZM538.42 567.14l-8.17 7.53-3.15-3.39 19.97-18.4 3.15 3.38-7.99 7.38 24.22 26.03-3.81 3.5-24.22-26.03zM592.62 555.16l3.46-4.43-24.49-18.95-3.46 4.43-3.66-2.83 10.15-13 3.67 2.83-3.52 4.5 24.49 18.95 3.52-4.5 3.66 2.83-10.17 13-3.65-2.83zM589.3 498.82l3.06-5.61 37.3 2.44-.07-.2-9.39-4.56-20.53-11.08 2.46-4.54 35.42 19.13-3.06 5.62-37.29-2.46.06.22 9.47 4.58 20.45 11.06-2.46 4.53-35.42-19.13zM654.06 442.42a21.34 21.34 0 0 1 .13 13.08c-3.86 11.13-15.34 10.76-24.71 7.56-9.21-3.16-18.51-10.1-14.75-20.94 1.76-5.09 6.29-8.5 11.52-9.65l1.26 5.09c-3.69.75-7 2.72-8.28 6.44-2.59 7.49 6.39 12 12.16 14 5.93 2 15.45 3.83 18.09-3.82a14 14 0 0 0 .47-7.73l-10-3.44-3.15 9.1-4.38-1.51 4.84-14Z" class="cls-6"/><path d="M63.82 261.24c1.17-4.38 1.28-8.71-4-10.12-3.87-1-7.69.67-9 5.42l-1.87 7L62.27 267ZM46 256.77c1.15-4.31-1-7.19-4.55-8.11-4.62-1.23-6.76 1.71-7.69 5.19l-1.4 5.27 12.16 3.22Zm18.35 20.42L59.88 276l1.06-4L31 264.1l-1.08 4-4.46-1.18 3.24-12.18c2.61-9.79 7.48-13 14.12-11.28a9 9 0 0 1 6.81 6.48 9.75 9.75 0 0 1 11.16-4.11c7 1.85 9.89 7.54 7.73 15.62Z" class="cls-4"/><path d="M63.82 261.24c1.17-4.38 1.28-8.71-4-10.12-3.87-1-7.69.67-9 5.42l-1.87 7L62.27 267ZM46 256.77c1.15-4.31-1-7.19-4.55-8.11-4.62-1.23-6.76 1.71-7.69 5.19l-1.4 5.27 12.16 3.22Zm18.35 20.42L59.88 276l1.06-4L31 264.1l-1.08 4-4.46-1.18 3.24-12.18c2.61-9.79 7.48-13 14.12-11.28a9 9 0 0 1 6.81 6.48 9.75 9.75 0 0 1 11.16-4.11c7 1.85 9.89 7.54 7.73 15.62Z" class="cls-5"/><path d="m52.06 206.92 14.63 12.82 4.71-10.38Zm18.28 16 9.38 8.33-3.8 3.88-30.72-27.67 2.74-6 41.15 4.64-.41 5.4-12.45-1.55ZM66.47 167.12l2.88-4.29 29.63 19.69 11.72-17.47 3.86 2.55-14.59 21.78-33.5-22.26zM109.08 122l9.7 16.83 7.81-8.3Zm12.13 21 6.16 10.9-4.84 2.45-20.13-36 4.56-4.83 37.44 17.61-2.13 5-11.27-5.57ZM132.85 90.94l5.08-3.88 33.06 17.3.03-.21-6.73-7.96-14.22-18.43 4.1-3.13 24.55 31.78-5.09 3.89-33.06-17.31-.03.21 6.77 8.02 14.18 18.36-4.1 3.14-24.54-31.78zM215.74 76.15c-.46 6-2.29 10.75-7.82 13.69-10.37 5.52-18.75-2.24-23.46-11-7.6-14.12-2.36-22.32 3.37-25.38 5.52-2.95 10.26-1.8 15.3 1.54l-3 4.32c-3-2-6.42-3.47-9.91-1.62-7.09 3.79-3.92 13.1-1 18.54s8.85 13.35 16.08 9.5c4.17-2.22 4.92-5.86 5.32-10.18ZM225.27 37.13l23.82-8.04 1.48 4.38-18.9 6.38 3.88 11.38 15.6-5.27 1.49 4.37-15.6 5.27 4.59 13.48 18.9-6.36 1.5 4.36-23.82 8.04-12.94-37.99zM287.9 56.74l5.42-.87c6.72-1.09 9.07-5.37 7.22-16.77-2-12.16-6-14.71-12.35-13.68l-5.27.85Zm-15-33.53 13.28-2.16c11.31-1.82 17.18 2 19.57 16.65 2 12.39 1.19 20.64-13.09 22.95l-13.25 2.15-.75-4.56 4.13-.67-5-30.47-4.12.67Z" class="cls-6"/><path d="m381.67 44.41 8.67-17.33 2.59 19.18Zm-12.53 12.81 4.72 2.64 5.69-11.13 14.07 2.33 1.7 12.35 5.32-1-6.05-40.71-6.54-1.07Z" class="cls-4"/><path d="m390.34 27.08-8.67 17.33 11.26 1.86Zm-10.8 21.65-5.68 11.13-4.71-2.64 18.9-36.6 6.54 1.08 6.05 40.71-5.32 1-1.7-12.36Z" class="cls-5"/><path d="m426.35 66 5.21 1.76c6.44 2.19 10.54-.47 14.29-11.4 4-11.65 1.65-15.79-4.42-17.85l-5.05-1.72ZM429 29.37l12.73 4.32c10.83 3.69 14.21 9.8 9.39 23.86-4.07 11.87-8.72 18.75-22.4 14.1L416 67.32l1.5-4.32 3.95 1.34 10-29.21-4-1.33ZM487.57 60.13 473.7 73.75l10.06 5.4Zm-17.3 17-9 8.71-3.6-4 29.86-28.56 5.84 3.14L485.82 97l-5.38-.79 2.42-12.25ZM524.46 98.73c4 3.1 7.6 2.92 10.43-.73 3.36-4.31 1.31-7.45-2-10l-5.63-4.33-8.38 10.77Zm-19.06 12.94-4.1-3.15L526 76.81l9.91 7.64c7.39 5.69 7.14 11.92 3.54 16.55-5.2 6.69-12.11 5.76-16.56 2.31L516 98ZM568.11 119.87l-7.59-8.11 3.39-3.14 18.55 19.82-3.39 3.14-7.44-7.93-26.08 24.16-3.53-3.76 26.09-24.18zM571.42 172.33l3.12 4.67 25.85-17.06-3.12-4.68 3.85-2.55 9.16 13.72-3.87 2.56-3.16-4.75-25.84 17.07 3.16 4.75-3.86 2.55-9.16-13.73 3.87-2.55zM636.45 214.86l.33 5.25-43.22 2.44-.38-.84 30.55-30.53 3.72 3.73-22.44 22.01 31.44-2.06zM645.67 243.9l6.38 24.2-4.49 1.17-5.06-19.21-11.68 3.05 4.19 15.86-4.5 1.17-4.16-15.86-13.85 3.61 5.06 19.21-4.49 1.17-6.37-24.2 38.97-10.17zM651.14 348.87c0 4 4.37 7.21 9.73 7.21s9.72-3.24 9.72-7.21-4.36-7.21-9.72-7.21-9.73 3.24-9.73 7.21M640.34 371.76a5.38 5.38 0 0 1 .59-.39c3.71-1.72 8.09-6.45 8.2-14.12V357c0-7.55-4.15-12.25-8-14.13a2.4 2.4 0 0 1-.49-.35 5.63 5.63 0 0 0-.64-.52 13.77 13.77 0 0 0-7.85-2.28 7.53 7.53 0 0 0-6.23 3.23 4.68 4.68 0 0 0-.76 2.53c0 1.83 1 3.51 2.25 5.46a28.76 28.76 0 0 1 2.14 4 7.37 7.37 0 0 1 .14 1.87 12.09 12.09 0 0 1-.18 2.39 26.22 26.22 0 0 1-2.21 3.78c-1.19 1.81-2.32 3.52-2.32 5.38a4.66 4.66 0 0 0 .62 2.29c2.29 4 8.58 4.78 14 1.7a8.13 8.13 0 0 0 .78-.52M651.36 365.28c0 3.89 4.26 7.05 9.5 7.05s9.51-3.16 9.51-7.05-4.26-7-9.51-7-9.5 3.16-9.5 7M655.8 378c0-3.41-3.55-6.07-8.09-6.07s-8.08 2.66-8.08 6.07 3.54 6.08 8.08 6.08 8.09-2.67 8.09-6.08M647.71 342.92c4.54 0 8.09-2.68 8.09-6.08s-3.55-6.08-8.09-6.08-8.09 2.67-8.09 6.08 3.56 6.08 8.09 6.08M21.74 341.66c-5.36 0-9.72 3.24-9.72 7.21s4.36 7.21 9.72 7.21 9.73-3.23 9.73-7.21-4.37-7.21-9.73-7.21M43.05 372.28c5.43 3.07 11.71 2.31 14-1.7a4.64 4.64 0 0 0 .62-2.3c0-1.85-1.13-3.56-2.32-5.36a27 27 0 0 1-2.21-3.8 11.2 11.2 0 0 1-.18-2.37 7.66 7.66 0 0 1 .14-1.89 27.5 27.5 0 0 1 2.14-3.94c1.21-1.95 2.25-3.63 2.25-5.48a4.55 4.55 0 0 0-.77-2.52 7.44 7.44 0 0 0-6.21-3.22 13.59 13.59 0 0 0-7.86 2.3 8.16 8.16 0 0 0-.66.5 2.5 2.5 0 0 1-.49.37c-3.87 1.88-8 6.57-8 14.11v.3c.11 7.66 4.49 12.4 8.2 14.12a4.23 4.23 0 0 1 .59.39 8.13 8.13 0 0 0 .78.52M21.74 358.23c-5.24 0-9.5 3.16-9.5 7s4.26 7.05 9.5 7.05 9.51-3.16 9.51-7.05-4.26-7-9.51-7M34.9 384c4.53 0 8.1-2.64 8.1-6s-3.56-6.09-8.09-6.09-8.09 2.67-8.09 6.09 3.54 6 8.08 6M43 336.84c0-3.41-3.56-6.08-8.09-6.08s-8.1 2.67-8.1 6.08 3.56 6.08 8.1 6.08 8.09-2.67 8.09-6.08" class="cls-6"/><path d="M450.86 562.8q-14.24-17.53-27.31-35.92 9.78 18.69 18.82 37.77c.28.56.57 1.12.86 1.68q3.84-1.7 7.63-3.53m91.81-116.56c4.68 3.32 9.25 6.79 13.68 10.47.41-.9.79-1.82 1.19-2.73q-7.45-3.83-14.87-7.74m18.06-.38q-6.76-4.91-13.65-9.6l2.69 2.14q3.84 2.93 7.58 6c1.81 1.49-.18 4.54-2.06 3.05l-.31-.24a.9.9 0 0 1-.79-.14c-13.12-9.13-26.26-18.22-39.36-27.4l-.15.11a1.29 1.29 0 0 1-.73.12l4.26 2.19c1.51.77.89 2.49-.33 3.07 11.47 7.28 22.87 14.66 34.31 21.94 2.25 1.18 4.51 2.33 6.77 3.49.62-1.57 1.2-3.15 1.77-4.75m1.44-4.24a1.55 1.55 0 0 1-.7.21c.16.13.34.25.51.38.07-.2.12-.4.19-.59m10.47-67.38.2.14 3.63 3.37c.38-2.85.76-5.69 1.1-8.55-1.62 1.71-3.28 3.37-4.93 5m-83.58-5.9c.74.26 1.49.49 2.24.69-.7-1.38-1.38-2.75-2.1-4.12 0 1.16-.06 2.31-.13 3.47m-11.15 42.49.74.48a1.81 1.81 0 0 1 1 .27l12.69 7.58c-1.4-1.18-2.81-2.35-4.19-3.54a1.57 1.57 0 0 1-.33-.41l-4.54-2.75c-1.68-.8-3.39-1.56-5.09-2.33a7.26 7.26 0 0 1-.27.7m.49 13.1-4.6-3c-.23.52-.47 1.05-.71 1.57q34.52 29.4 70.52 57c.49-.74 1-1.48 1.48-2.23q-33.53-26.46-66.7-53.34m69.71 47.72a1.62 1.62 0 0 1 .23.37.71.71 0 0 1 .1-.14l-.33-.23m-37.06-56.91-.87-.38a5.62 5.62 0 0 1 .74 1.81 1.8 1.8 0 0 1-.76 1.81l2.63 1.35a1 1 0 0 1-.23-.33c-.48-1.42-1-2.83-1.51-4.26m-5.87 6.47 4.17 2.42-4.12-2.56-.05.14m-23-21.73a.19.19 0 0 0 0 .07h.06M501 423l5 4.14a1.57 1.57 0 0 1 0-1.24l-5-2.9m-5-13.82c-1.54-.69-2.85-1.23-3.53-1.56-3.34-1.63-6.75-3.14-10.07-4.83l-.42-.21a1.74 1.74 0 0 1-.68-.63c-.08.22-.15.46-.24.69l2.54 1.49c4.14 1.68 8.29 3.36 12.42 5.06m9.32-9.52a1.57 1.57 0 0 1-.91 0c-.38-.12-.75-.27-1.14-.39.8.45 1.61.88 2.42 1.32-.13-.3-.25-.6-.37-.91M518.11 418c-.06 0-.09-.11-.16-.18-.3.19-.6.39-.9.56l10.2 7.23c0-.08.1-.16.15-.25l-9.29-7.36m8.22-5.54c-.74.49-1.45 1-2.2 1.46 3.84 2.05 7.63 4.14 11.35 6.34l-9.15-7.8m15.81-11.26c-.38.29-.75.59-1.14.88a1.79 1.79 0 0 1 .64.24c.24.13.47.28.71.42a1.77 1.77 0 0 1-.21-1.54m8.4 12.31c-3.66-2.76-7.36-5.47-11.15-8.08a1.68 1.68 0 0 1-.76-1.58c-.81.6-1.64 1.19-2.46 1.78 4.85 2.53 9.65 5.14 14.37 7.88m-4.76-15.14-1.91 1.48h.21a1.89 1.89 0 0 1 1.49-.31 1.85 1.85 0 0 1 .16-1 .29.29 0 0 1 0-.13m2.44-1.91c-.19.14-.37.29-.55.44a1.7 1.7 0 0 1 .39 0 1.92 1.92 0 0 1 .16-.42m18.21 31.25q-5.62-3.72-11.38-7.2l10.43 7.8.64.46.31-1.06m-14.78-34.12-1.09.91a1.87 1.87 0 0 1 .82.24l.22.13a2.11 2.11 0 0 1 .17-.75 1.94 1.94 0 0 1-.12-.53m16.23 28.66c-.63-.37-1.25-.73-1.87-1.11l1.78 1.5.1-.38m-13.61-30.92a3.07 3.07 0 0 0-.29.24h.06a.3.3 0 0 0 .08 0 2 2 0 0 1 .15-.29m1.81-1.54c-.21.18-.42.37-.63.54a1.59 1.59 0 0 1 .53 0 1.71 1.71 0 0 1 .1-.49m1.6-1.44-.14.13h.12v-.11M570 413.69l-1.1-.69 1.05.79a.09.09 0 0 1 0-.05m1.68-7.62c-1.23-.87-2.47-1.75-3.69-2.63l3.67 2.76a.69.69 0 0 1 0-.13m2.62-14c-.15-.09-.3-.18-.44-.28.14.12.29.22.43.33s0 0 0-.05m-1.43 8c-3.77-2.18-7.61-4.19-11.55-6 2.77 2.05 5.54 4.07 8.34 6.07 1 .62 1.88 1.28 2.82 1.92.13-.65.27-1.31.39-2M563 439.14c.32-1 .68-2 1-3.07q-10.8-7.86-22-15.11 10.23 8.75 20.47 17.46a2 2 0 0 1 .52.72m-12.59 29.29-61.49-44.06q-6.51-4.17-13-8.4c-.11.28-.23.55-.34.83l8.52 6.43q33.65 21.93 66.21 45.44a1.71 1.71 0 0 1 .13-.23m-8.83 14.12q-35.76-27.36-70-56.57c-.47 1-.94 2-1.43 2.93l5.65 4.2a1.46 1.46 0 0 1 2.19-.18l21.64 18.34q19.89 15.57 39.16 31.93a1.83 1.83 0 0 1 .63 1.81c.11.08.21.18.31.26.65-.89 1.29-1.79 1.91-2.71m-74.31-48.27a608.54 608.54 0 0 1 68.55 56.22l1.7-2.26-40-33.93q-14.39-11.25-29.12-22.09c-.36.7-.73 1.38-1.11 2.06m-2.44 4.25 68.47 55.18.31-.39a2 2 0 0 1-.42-.25 598.39 598.39 0 0 0-67.76-55.58l-.61 1m-24.53 28a2.79 2.79 0 0 1 .24.19c6.39 7 12.51 14.26 18.43 21.67a2 2 0 0 1 2.4-.68c-5.1-5.78-10.13-11.6-15.05-17.52a1 1 0 0 1-.09-1.3c-.27-.26-.53-.53-.79-.79-1.7-1.67 1.1-4.08 2.79-2.42 2.7 2.67 5.36 5.38 8 8.08-1-1.33-1.9-2.66-2.84-4a42.39 42.39 0 0 1-5.39-8.05l-.73-1.18c-2.25 2.12-4.6 4.11-7 6m-75.67 27c.14.51.27 1 .42 1.52-.1-.52-.17-1-.26-1.53h-.16m-70.95 39.3c.51-1.68 1-3.37 1.52-5.07a1.59 1.59 0 0 1 2.32-1c0-.28.05-.55.07-.82a2.27 2.27 0 0 1 .11-.34c-2.37.77-4.73 1.5-7.12 2.13 1 1.75 2 3.45 3.1 5.12m54.87-4.51c2.63 18.77 7.3 37.33 4.67 56.36h7.5q-6.07-28.16-12.17-56.32m23.28 16q3.11 19.65 6.36 39.23 3.63-.37 7.23-.87a1.49 1.49 0 0 1-1.5-1c-4.72-12.22-8.65-24.69-12.16-37.27m-28.61-43.85c.13.84.25 1.68.38 2.52a1.7 1.7 0 0 1 1.37-.81v-.25a1.78 1.78 0 0 1 2.05-2.08c-.16-1.25-.29-2.5-.43-3.75-1.21 1.19-2.45 2.38-3.72 3.52a1.64 1.64 0 0 1 .39.85m20.36 56.75c-.68-4.93-1.49-9.82-2.39-14.72q.68 4.95 1.2 9.91c.41 1.6.8 3.2 1.19 4.81m-25.38-52.11q3 19.17 6.08 38.35-2.4-20.47-4.79-40.93c-.61.51-1.23 1-1.86 1.51a1.08 1.08 0 0 1 .28.32 1.81 1.81 0 0 1 .29.75m-3.7 2.9q1.58 10.56 3.12 21.1c-.94-7.58-2-15.15-3-22.71l-.7.51a1.66 1.66 0 0 1 .6 1.1m-7.29 4c1.22 6.75 2.24 13.52 3.12 20.3q-.44-8.52-1.24-17c-.18-1.54-.35-3.07-.53-4.61l-1.48.95a1.31 1.31 0 0 1 .13.41m-25.93 14.17c0 .29 0 .58.05.88a1.76 1.76 0 0 1 2.05 1.43l.51 2.66c.38-2.79.84-5.58 1.36-8.36-1.6.64-3.22 1.24-4.86 1.82a1.9 1.9 0 0 1 .89 1.57m10.43-6.18q.51 7.24 1.47 14.42-.69-7.23-1.37-14.46h-.1m9-4.59c2.9 12.12 5.27 24.31 7.2 36.59a346.37 346.37 0 0 0-4.28-38.28c-1 .58-1.93 1.14-2.92 1.69m36-21.22c3.13 12 6.22 24.09 9.08 36.19q-2.47-15.08-4.94-30.13a1.68 1.68 0 0 1 1-1.92c-.33-1.49-.67-3-1-4.48-1.39.14-2.78.25-4.17.34m55.07 63.48c2.23 5.9 4.36 11.84 6.29 17.86l1.73-.54-8-17.32m-8.73-43.8q10.4 29.88 20.81 59.76l3.23-1.11c-7.29-19.85-15.47-39.33-24-58.65m18 26.73q5.24 15.16 10 30.5c1.23-.46 2.47-.91 3.69-1.39q-6.87-14.55-13.68-29.11M439 566.25c-2.74-5.34-5.66-10.6-8.66-15.8l8 18c.49-.2 1-.41 1.45-.6l-.75-1.58M409.32 519q-5.91-15.78-12.37-31.36c-.51.15-1 .3-1.54.43 4.71 10.28 9.38 20.58 13.91 30.93m.55 25.68q-9.62-27.6-19.22-55.19v-.22c-1.1.27-2.21.52-3.33.76 6.8 18.52 14.49 36.66 22.58 54.65m-18.13-15.57c2.7 6.22 5.44 12.42 8.06 18.68q-7.38-26.25-17.31-51.72a1.87 1.87 0 0 1 1.18-2.5l-.78-2.64q-2.58.5-5.17.93 7.5 18.45 14 37.25m13.49-41.89-1.06-1.49a1.79 1.79 0 0 1-.12-.24c-.7.24-1.41.46-2.11.68l2.26 5.1a688.36 688.36 0 0 0 43.15 61.27c-15.82-20.63-30.61-41.94-42.12-65.32m22.44 31.54c6.33 9.66 13.1 19 20.1 28.26q-10-14.13-20.1-28.26m-13.14-24.81 45.06 63.33a1.9 1.9 0 0 1 .32.86l1.06-.58q-22.49-32.32-46.44-63.61m-2.26-11.46q-2.19.89-4.42 1.68c.2.43.41.84.62 1.27l.31.42c-.09-1.58 2-2.94 3.15-1.4q26.88 34.79 52 70.88a1.86 1.86 0 0 1 .19.46c.53-.32 1.06-.64 1.6-.95q-28.2-35.1-53.43-72.36m57 60.71.8 1.11c1.35 1.92-1.41 4.36-2.79 2.43a562.07 562.07 0 0 0-43.84-54.44q21.47 30.83 45 60.14a1.71 1.71 0 0 1 .29.57q2.94-1.8 5.79-3.7l-5.26-6.11m-51.7-63-.26.11 1.65 1.76c-.45-.63-.93-1.24-1.39-1.86m65.18 61.92q-26.25-34.36-53.19-68.2c-.64.39-1.29.77-1.94 1.14 17.86 23.29 39.19 43.91 53.53 69.71.92-.65 1.82-1.33 2.74-2a1.6 1.6 0 0 1-1.14-.66m3.81-2a768.52 768.52 0 0 0-53.49-68.39l-.36.23q26.76 33.61 52.82 67.75a1.72 1.72 0 0 1 .29 1.63c.39-.28.76-.56 1.12-.85a2.18 2.18 0 0 1-.38-.37m4.6-3.67c-16.08-23.87-34.15-46-52.6-68.08a1.05 1.05 0 0 1-.19-.34c-.74.55-1.47 1.09-2.22 1.62a765.76 765.76 0 0 1 53.2 68 1.78 1.78 0 0 1 .29.67l2-1.57a.93.93 0 0 1-.45-.35m-24.89-38.59c9.25 12.14 18 24.62 26.53 37.23a1.09 1.09 0 0 1 .18.57c1.26-1 2.53-2.12 3.77-3.2q-14.39-18.07-30.48-34.6m8.09-16.08c2.77 3 5.52 6 8.27 9 9.05 8.27 17.16 17.37 26.94 24.84-11.42-11.57-23.34-22.69-35.22-33.82M457 453.92c21.18 17.94 40.86 37.84 59.51 58.33a.91.91 0 0 1 .25.56q2.06-2.17 4.06-4.4A571.5 571.5 0 0 0 457 453.92m8.46-7.36q29.67 22 57.63 46.07c-8.11-8.49-18.55-15.78-27.23-23.13a292.74 292.74 0 0 0-30.44-23.05s0 .07 0 .11m61.79 54.54q-32.7-28.68-67.82-54.42l-.23.33c23.32 17.24 46.07 35.19 67.42 54.82.21-.24.43-.48.63-.73m-3 3.48s-.1 0-.15-.08c-10.48-9.66-21.31-18.89-32.39-27.83q16.32 13.89 31.58 29c.33-.35.65-.72 1-1.09m-10.81 11.74a563.37 563.37 0 0 0-61.67-60.26l-.3.32c21.72 17.54 41.29 38.48 60.6 58.57.76.81-.1 1.82-1 1.75l1.17.87 1.19-1.25m-3.8 3.91c-.64-.46-1.29-.93-1.92-1.41l1.57 1.78c.11-.13.24-.24.35-.37m-3 3q-13.38-15.36-27.13-30.42c-1.47-1.32-3-2.6-4.5-3.86-2.08-1.7-4.28-3.41-6.5-5.18a415.14 415.14 0 0 0 37.83 39.76l.3-.3m-5.09 4.88a2.22 2.22 0 0 1-.34-.3q-14.2-16.5-29.08-32.32c8.89 10.22 17.7 20.54 26.62 30.71a1 1 0 0 1-.88 1.71c.56.7 1.14 1.38 1.7 2.07.69-.62 1.36-1.25 2-1.88m-23.43 18.78c-14.31-26-35.88-46.61-53.77-70-1.12.59-2.25 1.16-3.39 1.72 17.56 24 37.33 46.13 56.67 68.65.17-.1.33-.23.49-.34m-64.07 29.88q-4.5-13.85-9.52-27.5c-.59-1.49-1.19-3-1.78-4.47q4.63 16.25 8.31 32.78l3-.81m-6.89 1.8c-.61-2.07-1.24-4.15-1.91-6.2.09.34.19.67.29 1 .63 2.29-3 2.92-3.64.66a455.72 455.72 0 0 0-19.16-52.76q5.93 18 12 36c2 5.34 3.88 10.74 5.42 16.23.46 1.62-1.71 2.64-2.88 1.89.24.84.49 1.68.73 2.53.37 1.35-.76 2.11-1.87 2a1.49 1.49 0 0 1-2.33-.8q-6.3-18.88-12.58-37.78c3.11 11.38 5.54 22.89 5.85 34.83.35 1.33.71 2.64 1.08 4a1.58 1.58 0 0 1-1.48 2 2.14 2.14 0 0 1-.92.42q10.83-1.51 21.43-4.11m-35.26 5.59q-1.72-9.33-3.67-18.61 1 9.35 1.37 18.78l2.3-.17m-6.77.41q-.82-5.92-2-11.78a1.9 1.9 0 0 1-.76.39q1.11 5.72 2.21 11.42h.52m-18.27-.79-1.68-10.63c.13 2.88.23 5.76.28 8.65a1.64 1.64 0 0 1-.18.83l1.58 1.15m-5.55-4.07q-1.26-8.46-2.51-16.92l1.24 14.32a1.81 1.81 0 0 1-.42 1.36l1.69 1.24m-5.32-4q-.82-7.14-1.64-14.26c-.1 4.13-.25 8.26-.48 12.39v.21c.72.55 1.43 1.11 2.16 1.66m-14.78-11.87q-1-5.68-2-11.39c0 2.23-.05 4.44-.11 6.67a1.64 1.64 0 0 1-1.44 1.58c1.17 1.06 2.34 2.11 3.53 3.14m-5.82-5.24c-.05-.54-.11-1.07-.15-1.61a1.85 1.85 0 0 1-2.15-1.41c-.87-3.82-1.6-7.64-2.27-11.47 0 1.54-.09 3.08-.13 4.62-.06 2-3.55 2.28-3.66.18-.17-2.76-.32-5.52-.49-8.28-.1 1.32-.2 2.63-.27 3.94-.1 2.11-3.27 2.22-3.67.19-.13-.73-.27-1.44-.4-2.16-.05.59-.1 1.2-.16 1.8a153.89 153.89 0 0 0 13.36 14.15M298.7 545a117.65 117.65 0 0 1-11.07-16.56c-1.41-.21-1.55-2.61.12-3.09 23.13-6.68 42.35-18.1 60.13-34.15a1.17 1.17 0 0 1 1.94.52l1.09-.07a2 2 0 0 1 1.3-.08c4-.25 8.05-.6 12.07-1a.69.69 0 0 0 0-.13c-.27-1.94 2.8-3.19 3.49-1.13l.27.82.71-.08c-.21-.64-.42-1.29-.62-1.92-.65-2 2.64-3 3.48-1.13l1.14 2.5h.29c.19-1.54 2.76-2.16 3.49-.54 16.34-2.67 32.32-7.27 46.72-15a1.85 1.85 0 0 1 2.21-1.21c.88-.51 1.76-1 2.62-1.54a1.92 1.92 0 0 1 2.55-1.58l.52-.35a1.88 1.88 0 0 1 2.88-1.95 100.73 100.73 0 0 0 11.58-9.41c-.2-.31-.41-.62-.6-.95-1.2-2 2-3.54 3.26-1.69q3.31-3.4 6.31-7.13c-1.3-1.45.44-3.9 2.19-2.83q1.51-2 2.95-4.13a1.75 1.75 0 0 1 .59-.85l.27-.43c-.17-.12-.32-.26-.49-.39-1.85-1.48.22-4.54 2.06-3.06l.43.34.53-.86c-.56-.38-1.1-.78-1.66-1.17-2-1.35.11-4.41 2.07-3.05l1.47 1c.4-.7.79-1.39 1.18-2.1l-.26-.2.42-.11c11.32-20.84 17.67-45.17 20.83-67.31a1 1 0 0 1 2.06.22v.41a1.63 1.63 0 0 1 2.81 0 357 357 0 0 1 16.2 34.55c1.57 3.9 3.72 14.69 7.12 16.59 2.43 1.34 14.35-8.2 17.12-10.14 16.73-11.72 31.65-25.48 45.66-40.26.33-3 .65-6 .93-9a1.38 1.38 0 0 1 2.75.28c-.2 2.8-.44 5.6-.69 8.41a1.2 1.2 0 0 1-.09 1.51l-.06.07c-.77 8.16-1.82 16.38-3.11 24.59a1.76 1.76 0 0 1-.37 2.26c-.68 4.11-1.41 8.22-2.22 12.32a2 2 0 0 1-.21 1.06c-1.76 8.74-3.88 17.39-6.35 25.88a2.06 2.06 0 0 1-.22.78q-1.74 5.93-3.71 11.71l2.58 1.88c1.89 1.42-.15 4.46-2.08 3.05l-1.75-1.27c-.09.27-.18.55-.28.82-.41 1.15-.87 2.28-1.32 3.42l.83.43c2.13 1.08 0 4.13-2.06 3.06l-.16-.08c-11.34 26.77-30.77 49.26-51.23 69.79A211.81 211.81 0 0 1 444 569.67a2 2 0 0 1-1.92.84c-1.26.54-2.54 1.06-3.82 1.57a2.15 2.15 0 0 1-.24.18 2.1 2.1 0 0 1-.69.2c-1.9.76-3.8 1.49-5.72 2.19a1.76 1.76 0 0 1-1.32.74 1.86 1.86 0 0 1-1.39.22c-1.52.54-3.05 1-4.58 1.55a2.15 2.15 0 0 1-.49.55 1.92 1.92 0 0 1-2.31.35c-.86.27-1.72.52-2.58.78-.18 1.25-1.9 1.67-3 .89a220.13 220.13 0 0 1-46.41 8 1.61 1.61 0 0 1-1.67.71 1.73 1.73 0 0 1-2-.51h-.72a1.63 1.63 0 0 1-.82 1.1 1.88 1.88 0 0 1-2.85-1c-3.12.08-6.24.12-9.36.06a1.59 1.59 0 0 1-2.46 1.53l-2.3-1.62c-1.93-.08-3.85-.18-5.78-.31-2.17-.15-1.82-3.51.36-3.36h.38c-15.76-11.51-31.07-23.75-43.18-38.82a2.17 2.17 0 0 1-.43-.52" style="fill:#fff"/><path d="m667.65 419.82 1-2.66a8.2 8.2 0 0 1 1.1-2.25 2.38 2.38 0 0 1 1.11-.73 2.06 2.06 0 0 1 1.25.06 2 2 0 0 1 1.31 1.31 5.08 5.08 0 0 1-.41 3l-1 2.84Zm12.26 4.47-6-2.19.5-1.38a3.2 3.2 0 0 1 1.17-1.69 12.2 12.2 0 0 1 4.19-1.25l2.7-.46 1-2.86-3.42.75a16.92 16.92 0 0 0-3.59 1.12 4.08 4.08 0 0 0-1.2 1 4.85 4.85 0 0 0-.2-3.48 3.94 3.94 0 0 0-2.3-2.11 3.74 3.74 0 0 0-2.32-.09 3.87 3.87 0 0 0-2 1.32 13.92 13.92 0 0 0-1.74 3.55l-1.8 5 14.18 5.17Zm-13.57-15.23a11.08 11.08 0 0 1 5.61-2.72 11.73 11.73 0 0 1 6 .51 11.57 11.57 0 0 1 4.93 3.47 10.94 10.94 0 0 1 2.56 5.64 12.13 12.13 0 0 1-4.06 11.16 11.15 11.15 0 0 1-5.59 2.68 11.44 11.44 0 0 1-6-.49 11.6 11.6 0 0 1-5-3.53 11 11 0 0 1-2.55-5.68 12.23 12.23 0 0 1 .59-6 12.39 12.39 0 0 1 3.42-5M660 420.5a13.19 13.19 0 0 0 3 6.81 13.8 13.8 0 0 0 13.17 4.83 13.32 13.32 0 0 0 6.7-3.21 14.6 14.6 0 0 0 4.87-13.4 13.16 13.16 0 0 0-3.08-6.75 13.86 13.86 0 0 0-5.9-4.16 14 14 0 0 0-7.27-.61 13.07 13.07 0 0 0-6.71 3.26A14.55 14.55 0 0 0 660 420.5" class="cls-6"/></svg>